<svg id="_1-Digital_Library" data-name="1-Digital Library" xmlns="http://www.w3.org/2000/svg" width="118.909" height="118.834" viewBox="0 0 118.909 118.834">
  <path id="Path_2" data-name="Path 2" d="M-583.594,283.32c1.648.364,3.325.631,4.94,1.108a29.764,29.764,0,0,1,19.786,17.622,1.328,1.328,0,0,0,1.706.963c12.19-1.7,24.32,7.163,26.2,19.286.348,2.246.968,3.794,3.056,5.1,3.384,2.111,5.2,5.5,5.837,9.47a2.445,2.445,0,0,0,.212.519v3.481a32.173,32.173,0,0,1-1.274,4.187,14.356,14.356,0,0,1-11.014,8.62c-1.513.28-2.58-.3-2.765-1.5-.176-1.147.614-1.98,2.128-2.221a10.613,10.613,0,0,0,6.764-3.9,10.918,10.918,0,0,0-4.172-16.97,3,3,0,0,1-2.122-3.12,20.02,20.02,0,0,0-15.378-18.87,18.774,18.774,0,0,0-8.834-.017c-1.833.44-2.445.072-3.069-1.646-3.734-10.277-11-16.429-21.794-18.1-13.4-2.077-26.706,7.339-29.456,20.623-.086.415-.152.836-.248,1.249a1.907,1.907,0,0,1-2.187,1.62c-9.457-1.126-18.812,5.421-21.117,15.131a19.938,19.938,0,0,0,9.044,21.373c.876.539,1.627,1.12,1.427,2.267-.255,1.461-1.714,1.954-3.188,1.083a22.78,22.78,0,0,1-10.049-11.752,23.422,23.422,0,0,1,18.158-31.715,18.482,18.482,0,0,1,3.225-.288c.965.018,1.35-.272,1.649-1.242q5.808-18.854,25.3-22.141a2.284,2.284,0,0,0,.508-.219Z" transform="translate(640.769 -283.32)" fill="#fb8b09"/>
  <path id="Path_3" data-name="Path 3" d="M-519.756,533.606a34.458,34.458,0,0,1,12.545-5.889c10.43-2.362,19.543.367,27.486,7.334a2.679,2.679,0,0,1,.783,1.8q.062,25.051.037,50.1a1.879,1.879,0,0,1-1.044,1.9,2.016,2.016,0,0,1-2.25-.388,29.444,29.444,0,0,0-17.753-6.128,30.863,30.863,0,0,0-18.176,5.974c-1.466,1.014-1.875,1.033-3.3-.019a29.267,29.267,0,0,0-18.388-5.95,30.909,30.909,0,0,0-17.349,6.014,2.188,2.188,0,0,1-2.442.477c-.954-.488-1-1.351-1-2.278q.016-21.282.009-42.563c0-2.358-.066-4.719.042-7.073a3.009,3.009,0,0,1,.885-1.983c6.417-5.353,13.681-8.522,22.194-8.023A31.832,31.832,0,0,1-519.756,533.606Zm37.05,49.858a2.468,2.468,0,0,0,.08-.4q.007-22.5-.013-45.008a1.539,1.539,0,0,0-.512-1.046,26.7,26.7,0,0,0-16.3-6.388c-6.667-.216-12.56,2.115-17.9,5.964a1.883,1.883,0,0,0-.527,1.363q-.041,22.214-.021,44.427c0,.367.032.734.053,1.2C-506.1,577.023-494.414,576.855-482.706,583.464Zm-38.9.053V570.138q0-16.122-.019-32.245a1.825,1.825,0,0,0-.444-1.3,27.548,27.548,0,0,0-18.572-5.927c-5.845.313-10.957,2.725-15.537,6.282a2.039,2.039,0,0,0-.682,1.416q-.052,22.154-.023,44.308a8.889,8.889,0,0,0,.091.885C-545.065,577.035-533.422,576.862-521.608,583.516Z" transform="translate(579.25 -470.245)" fill="#0db154"/>
  <path id="Path_4" data-name="Path 4" d="M-473.03,415.723v-1.232q0-8.287,0-16.573c0-1.439.71-2.3,1.861-2.291s1.839.858,1.841,2.313q.006,8.287,0,16.573c0,.413,0,.825,0,1.549,1.437-1.443,2.63-2.732,3.932-3.9a2.811,2.811,0,0,1,1.808-.761,1.781,1.781,0,0,1,1.157,2.971c-2.473,2.6-5.034,5.126-7.626,7.612a1.69,1.69,0,0,1-2.5-.185q-3.631-3.581-7.209-7.215a1.8,1.8,0,0,1-.051-2.683,1.773,1.773,0,0,1,2.677.054c1.3,1.267,2.536,2.6,3.8,3.9Z" transform="translate(517.677 -369.518)" fill="#fb8b09"/>
  <path id="Path_5" data-name="Path 5" d="M-357.677,402.454q0,8.693,0,17.387c0,.309.02.621-.008.928a1.816,1.816,0,0,1-1.834,1.718,1.8,1.8,0,0,1-1.851-1.695c-.04-.461-.014-.927-.014-1.391,0-5.644,0-11.289,0-17.12a8.9,8.9,0,0,0-.753.585c-1.157,1.139-2.277,2.319-3.466,3.424a1.821,1.821,0,0,1-2.61-.027,1.747,1.747,0,0,1-.01-2.595q3.652-3.73,7.385-7.38a1.775,1.775,0,0,1,2.6-.013q3.732,3.65,7.388,7.376a1.763,1.763,0,0,1,.019,2.6,1.835,1.835,0,0,1-2.695-.028c-1.317-1.289-2.571-2.642-3.852-3.968Z" transform="translate(432.024 -369.586)" fill="#fb8b09"/>
</svg>
