<svg xmlns="http://www.w3.org/2000/svg" width="112.081" height="111.985" viewBox="0 0 112.081 111.985">
  <g id="_2-Courses" data-name="2-Courses" transform="translate(0 0)">
    <path id="Path_6" data-name="Path 6" d="M-413.219,1197.846a2.791,2.791,0,0,0-.156,1.492q-.015,10.6-.01,21.2c0,.178.012.357,0,.533a2.117,2.117,0,0,1-2.248,2.127,2.03,2.03,0,0,1-2.011-2.194c-.029-3.6-.013-7.2-.012-10.8,0-5.068.039-10.136-.017-15.2a2.79,2.79,0,0,1,1.849-2.88c6.159-2.861,12.287-5.79,18.429-8.687,1.508-.711,2.691-.41,3.294.809.593,1.2.075,2.334-1.467,3.067-4.411,2.094-8.831,4.165-13.247,6.248-.439.207-.871.432-1.3.643.034.532.486.521.769.653,4.148,1.92,8.315,3.8,12.451,5.743a1.952,1.952,0,0,0,1.856-.04c5.595-2.6,11.243-5.088,16.792-7.781,2.4-1.164,4.026.013,3.909,2.564-.185,4.037-.088,8.089-.029,12.134a2.685,2.685,0,0,1-1.805,2.771c-5.54,2.506-11.047,5.082-16.595,7.57a1.643,1.643,0,0,0-1.139,1.787c.045,5.067.028,10.135.021,15.2,0,3.354,1.232,4.6,4.553,4.6,8.312,0,16.625-.022,24.937.016a7.659,7.659,0,0,1,7.512,6.793,7.793,7.793,0,0,1-5.319,8.286,9.723,9.723,0,0,1-3.021.4q-18.469-.014-36.938-.024a1.451,1.451,0,0,0-1.669,1.169c-1.547,4.351-4.692,6.925-9.3,7.209a84.268,84.268,0,0,1-12.788-.067,10.427,10.427,0,0,1-9.294-9.9c-.158-5.427,3.471-10.215,8.624-10.869a61.357,61.357,0,0,1,14.36-.034c4.268.465,7.051,3.142,8.445,7.172.281.814.586,1.091,1.452,1.089,12.446-.03,24.892-.016,37.338-.025a3.594,3.594,0,0,0,3.831-2.992,3.528,3.528,0,0,0-2.3-3.785,5.25,5.25,0,0,0-1.845-.181q-12.2-.008-24.4-.007c-5.249,0-8.441-3.216-8.444-8.492,0-5.112-.044-10.225.032-15.336a1.974,1.974,0,0,0-1.415-2.156c-3.1-1.338-6.147-2.778-9.206-4.2-1.321-.613-1.824-1.509-1.533-2.6.387-1.457,1.728-2,3.306-1.29,3.315,1.5,6.627,3.01,9.914,4.571a2.081,2.081,0,0,0,1.982.045c5.069-2.362,10.146-4.706,15.252-6.988a1.716,1.716,0,0,0,1.189-1.9c-.071-2.441-.024-4.885-.024-7.561-2.463,1.12-4.787,2.17-7.106,3.232-2.906,1.33-5.821,2.64-8.7,4.018a3.391,3.391,0,0,1-3.163-.024c-4.858-2.288-9.746-4.511-14.626-6.754C-412.561,1198.084-412.889,1197.974-413.219,1197.846Zm-6,48.583c-1.686,0-3.371-.005-5.057,0a7.15,7.15,0,0,0-2.853.545,6.372,6.372,0,0,0-3.747,6.824,6.339,6.339,0,0,0,6.431,5.26c3.37.068,6.742.039,10.113.007a8.824,8.824,0,0,0,2.359-.324,6.26,6.26,0,0,0,4.424-6.632,6.392,6.392,0,0,0-6.349-5.67C-415.671,1246.386-417.447,1246.431-419.221,1246.429Z" transform="translate(452.084 -1151.483)" fill="#0db154"/>
    <path id="Path_7" data-name="Path 7" d="M-439.632,1064.961q25.066,0,50.132,0a6.3,6.3,0,0,1,1.584.125,2,2,0,0,1,1.659,1.988,2,2,0,0,1-1.66,2.117,7.647,7.647,0,0,1-1.716.139q-50,.013-100,.016c-3.261,0-4.346,1.126-4.355,4.44-.007,2.578.04,5.157-.029,7.733-.026.983.227,1.272,1.247,1.267,8.355-.042,16.711-.021,25.066-.017a6.129,6.129,0,0,1,1.2.034,2.023,2.023,0,0,1,1.807,2.134,2,2,0,0,1-1.867,2.073,7.622,7.622,0,0,1-1.2.024c-8.311,0-16.622.021-24.933-.024-1.065-.006-1.32.3-1.318,1.334q.051,24.468.028,48.936c0,3.078,1.3,4.386,4.372,4.388q19.067.008,38.133.005a3.033,3.033,0,0,1,1.694.217,2.064,2.064,0,0,1,1.092,2.244,2.086,2.086,0,0,1-2.058,1.772c-1.239.082-2.487.038-3.732.038-11.689,0-23.378-.1-35.065.038a8.359,8.359,0,0,1-8.768-8.685c.132-21.468.052-42.936.057-64.4a7.817,7.817,0,0,1,8.1-7.929q21.4-.02,42.8,0Q-443.5,1064.963-439.632,1064.961Z" transform="translate(498.318 -1064.959)" fill="#fb8b09"/>
    <path id="Path_8" data-name="Path 8" d="M-215.1,1160.619q0,12.935,0,25.871c-.007,4.907-3.27,8.213-8.187,8.223q-19.335.04-38.67.013c-1.981,0-3.2-1.342-2.622-2.868a2.25,2.25,0,0,1,2.446-1.419q13.268.032,26.536.01c4,0,8,.009,12,0,2.892-.006,4.231-1.356,4.232-4.253,0-16.269-.015-32.539.031-48.808,0-1.28-.3-1.611-1.6-1.6-8.222.067-16.446.038-24.669.039a7.223,7.223,0,0,1-1.2-.031,2.017,2.017,0,0,1-1.862-2.084,2.049,2.049,0,0,1,1.824-2.128,4.539,4.539,0,0,1,.931-.032q13.935,0,27.869,0c2.28,0,2.938.657,2.938,2.926Q-215.1,1147.55-215.1,1160.619Z" transform="translate(327.176 -1113.744)" fill="#fb8b09"/>
    <path id="Path_9" data-name="Path 9" d="M-363.7,1144.512c-3.307-1.526-6.314-2.918-9.326-4.3q-10.649-4.892-21.295-9.79a2.3,2.3,0,0,0-2.133-.041q-14.626,6.76-29.275,13.471a2.067,2.067,0,0,0-1.168.776c1.7.789,3.384,1.549,5.048,2.349,1.469.707,1.993,1.794,1.489,2.967-.527,1.226-1.789,1.591-3.3.9-3.032-1.375-6.049-2.78-9.079-4.161a2.333,2.333,0,0,1-1.685-2.156,2.258,2.258,0,0,1,1.641-2.177c11.3-5.174,22.647-10.255,33.864-15.605a7.543,7.543,0,0,1,7.214.1c10.758,5.075,21.6,9.975,32.408,14.941.444.2.88.424,1.324.626a2.193,2.193,0,0,1,1.527,2.119,2.249,2.249,0,0,1-1.563,2.106c-2.5,1.151-5.006,2.289-7.509,3.433-.687.314-1.356.672-2.061.938a2.125,2.125,0,0,1-2.889-1.129,2.03,2.03,0,0,1,1.143-2.748C-367.574,1146.277-365.793,1145.483-363.7,1144.512Z" transform="translate(451.509 -1109.59)" fill="#0db154"/>
    <path id="Path_10" data-name="Path 10" d="M-414.249,1101.873a1.779,1.779,0,0,1,1.755-1.923,1.627,1.627,0,0,1,1.639,1.726,1.551,1.551,0,0,1-1.676,1.653A1.594,1.594,0,0,1-414.249,1101.873Z" transform="translate(436.725 -1090.591)" fill="#0db154"/>
    <path id="Path_11" data-name="Path 11" d="M-459.162,1101.8a1.617,1.617,0,0,1-1.725,1.543,1.651,1.651,0,0,1-1.662-1.707,1.736,1.736,0,0,1,1.724-1.683A1.767,1.767,0,0,1-459.162,1101.8Z" transform="translate(472.112 -1090.599)" fill="#0db154"/>
    <path id="Path_12" data-name="Path 12" d="M-436.727,1103.421a1.527,1.527,0,0,1-1.537-1.64,1.552,1.552,0,0,1,1.625-1.728,1.631,1.631,0,0,1,1.748,1.647A1.72,1.72,0,0,1-436.727,1103.421Z" transform="translate(454.319 -1090.669)" fill="#0db154"/>
    <path id="Path_13" data-name="Path 13" d="M-382.376,1435.8c.932,0,1.865-.023,2.8.006a2.1,2.1,0,0,1,2.281,2.076,2.092,2.092,0,0,1-2.192,2.176c-1.952.045-3.907.049-5.859,0a2.07,2.07,0,0,1-2.13-2.227,2.032,2.032,0,0,1,2.175-2.023C-384.329,1435.771-383.352,1435.8-382.376,1435.8Z" transform="translate(417.113 -1336.645)" fill="#fb8b09"/>
  </g>
</svg>
