<svg xmlns="http://www.w3.org/2000/svg" width="108.618" height="108.589" viewBox="0 0 108.618 108.589">
  <g id="_3-Events" data-name="3-Events" transform="translate(0 0)">
    <path id="Path_21" data-name="Path 21" d="M125.94,277.283c-1.417,0-2.834.015-4.251,0a1.593,1.593,0,0,1-1.807-1.806q-.028-4.3,0-8.609a1.553,1.553,0,0,1,1.742-1.761q4.3-.047,8.61,0a1.628,1.628,0,0,1,1.83,1.827q.048,4.3,0,8.609c-.016,1.218-.618,1.732-1.875,1.745C128.774,277.294,127.357,277.283,125.94,277.283Zm-2.73-3.359h5.405v-5.38h-5.405Z" transform="translate(-72.137 -231.72)" fill="#fb8b09"/>
    <path id="Path_22" data-name="Path 22" d="M119.879,307.12c0-1.453-.021-2.908.006-4.361.021-1.156.505-1.69,1.657-1.7q4.416-.056,8.832,0a1.529,1.529,0,0,1,1.69,1.71q.056,4.361,0,8.723a1.566,1.566,0,0,1-1.7,1.733q-4.416.07-8.832,0c-1.143-.02-1.629-.6-1.649-1.739C119.859,310.028,119.879,308.574,119.879,307.12Zm8.735,2.694v-5.393h-5.388v5.393Z" transform="translate(-72.137 -232.613)" fill="#fb8b09"/>
    <path id="Path_23" data-name="Path 23" d="M106.13,277.285c-1.381,0-2.762.009-4.142,0-1.284-.012-1.824-.494-1.835-1.747q-.038-4.359,0-8.717a1.521,1.521,0,0,1,1.678-1.711q4.359-.054,8.718,0a1.674,1.674,0,0,1,1.782,1.8q.061,4.3,0,8.608c-.018,1.246-.6,1.758-1.85,1.773C109.036,277.3,107.583,277.285,106.13,277.285Zm-2.637-3.365h5.4v-5.373h-5.4Z" transform="translate(-71.647 -231.72)" fill="#fb8b09"/>
    <path id="Path_24" data-name="Path 24" d="M106.194,295.181c-1.417,0-2.835.013-4.251-.006-1.195-.016-1.774-.534-1.786-1.7q-.042-4.413,0-8.827a1.506,1.506,0,0,1,1.72-1.659q4.3-.035,8.611,0a1.688,1.688,0,0,1,1.846,1.835q.057,4.249,0,8.5c-.016,1.3-.609,1.84-1.9,1.857C109.028,295.2,107.611,295.181,106.194,295.181Zm2.694-3.24v-5.421h-5.379v5.421Z" transform="translate(-71.647 -232.164)" fill="#fb8b09"/>
    <path id="Path_25" data-name="Path 25" d="M86.527,295.179c-1.416,0-2.834.013-4.25,0-1.271-.015-1.845-.519-1.86-1.749q-.051-4.3,0-8.608c.015-1.309.58-1.83,1.9-1.838q4.2-.022,8.391,0a1.661,1.661,0,0,1,1.893,1.777q.07,4.358,0,8.717c-.021,1.182-.62,1.681-1.811,1.7C89.361,295.195,87.944,295.179,86.527,295.179Zm2.64-3.237v-5.42H83.8v5.42Z" transform="translate(-71.157 -232.164)" fill="#fb8b09"/>
    <path id="Path_26" data-name="Path 26" d="M86.494,277.282c-1.453,0-2.906.017-4.358-.007-1.149-.018-1.7-.5-1.712-1.649q-.056-4.412,0-8.823a1.526,1.526,0,0,1,1.7-1.7q4.358-.053,8.716,0a1.618,1.618,0,0,1,1.743,1.707q.076,4.41,0,8.822c-.021,1.188-.6,1.633-1.842,1.646C89.327,277.294,87.911,277.283,86.494,277.282Zm-2.7-8.773v5.444h5.371V268.51Z" transform="translate(-71.157 -231.72)" fill="#fb8b09"/>
    <path id="Path_27" data-name="Path 27" d="M86.6,301.033c1.381,0,2.762-.022,4.143.007,1.278.026,1.838.515,1.858,1.769q.067,4.3,0,8.611c-.018,1.238-.594,1.8-1.838,1.814q-4.252.056-8.5,0c-1.3-.018-1.832-.583-1.845-1.906q-.038-4.2,0-8.392c.014-1.41.5-1.874,1.936-1.9,1.417-.027,2.834-.006,4.252-.006ZM83.771,309.8h5.422v-5.366H83.771Z" transform="translate(-71.157 -232.612)" fill="#fb8b09"/>
    <path id="Path_28" data-name="Path 28" d="M100.146,307.093c0-1.418-.022-2.835,0-4.252.025-1.284.5-1.785,1.8-1.8q4.306-.042,8.614,0a1.555,1.555,0,0,1,1.775,1.743q.06,4.306,0,8.613a1.629,1.629,0,0,1-1.837,1.828q-4.306.06-8.614,0c-1.2-.018-1.709-.582-1.734-1.776C100.123,310,100.147,308.547,100.146,307.093Zm3.342,2.705h5.424v-5.362h-5.424Z" transform="translate(-71.647 -232.612)" fill="#fb8b09"/>
    <path id="Path_29" data-name="Path 29" d="M145.7,277.285c-1.417,0-2.835.016-4.252,0-1.268-.017-1.842-.6-1.848-1.885q-.018-4.251,0-8.5c.006-1.171.552-1.779,1.713-1.792q4.361-.053,8.721,0a1.6,1.6,0,0,1,1.752,1.791q.045,4.3,0,8.611c-.011,1.218-.609,1.765-1.84,1.778C148.536,277.3,147.118,277.284,145.7,277.285Zm2.681-3.33v-5.4h-5.446v5.4Z" transform="translate(-72.627 -231.72)" fill="#fb8b09"/>
    <path id="Path_30" data-name="Path 30" d="M165.31,277.283c-1.381,0-2.762.014-4.143,0-1.266-.017-1.843-.6-1.849-1.888q-.02-4.2,0-8.392c0-1.3.554-1.887,1.841-1.9q4.251-.04,8.5,0c1.275.012,1.842.613,1.85,1.907q.026,4.2,0,8.392c-.008,1.351-.564,1.871-1.95,1.882C168.145,277.292,166.727,277.283,165.31,277.283Zm-2.66-3.337h5.476v-5.383H162.65Z" transform="translate(-73.116 -231.72)" fill="#fb8b09"/>
    <path id="Path_31" data-name="Path 31" d="M139.6,289.078c0-1.38-.013-2.76,0-4.14.014-1.2.536-1.748,1.712-1.755q4.358-.028,8.715,0a1.563,1.563,0,0,1,1.759,1.749q.044,4.3,0,8.605a1.638,1.638,0,0,1-1.826,1.831q-4.248.044-8.5,0a1.764,1.764,0,0,1-1.869-1.936c-.018-1.453,0-2.905,0-4.357Zm3.334,2.732h5.406v-5.424h-5.406Z" transform="translate(-72.627 -232.169)" fill="#fb8b09"/>
    <path id="Path_32" data-name="Path 32" d="M165.422,283.177c1.416,0,2.833-.014,4.249,0,1.248.016,1.828.552,1.838,1.771q.035,4.3,0,8.605a1.593,1.593,0,0,1-1.726,1.805q-4.3.059-8.606,0a1.768,1.768,0,0,1-1.859-1.95q-.02-4.248,0-8.5a1.537,1.537,0,0,1,1.745-1.738C162.517,283.16,163.97,283.178,165.422,283.177Zm2.764,8.679c0-1.732.017-3.357-.022-4.981a.744.744,0,0,0-.483-.537c-1.658-.041-3.317-.024-4.985-.024v5.543Z" transform="translate(-73.116 -232.169)" fill="#fb8b09"/>
    <path id="Path_33" data-name="Path 33" d="M124.212,290.842l7.851-7.432c.237-.225.45-.479.7-.683a1.507,1.507,0,0,1,2.162.057,1.578,1.578,0,0,1,.129,2.251,10.839,10.839,0,0,1-.824.87q-4.167,4.238-8.337,8.471c-1.341,1.358-2.344,1.277-3.463-.272-1-1.383-2.006-2.763-2.99-4.157-.76-1.077-.706-2.142.1-2.706.83-.583,1.811-.305,2.6.758C122.893,289.012,123.628,290.039,124.212,290.842Z" transform="translate(-72.113 -232.148)" fill="#0db154"/>
    <path id="Path_34" data-name="Path 34" d="M165.949,317.577c1.347,0,2.693-.011,4.039,0,1.167.014,1.775.56,1.8,1.576.029,1.1-.544,1.689-1.78,1.7q-4.094.038-8.188,0a1.155,1.155,0,0,0-1.193.676,4.455,4.455,0,0,1-4.474,2.291,4.858,4.858,0,0,1-3.981-3.575,4.483,4.483,0,0,1,2.089-4.88,1.374,1.374,0,0,0,.75-1.387c-.041-2.292-.021-4.584-.012-6.877.007-1.341.535-1.979,1.62-2,1.165-.025,1.692.569,1.7,2.009.019,2.256.026,4.512,0,6.768a1.438,1.438,0,0,0,.765,1.509,2.953,2.953,0,0,1,1.249,1.179c.463.992,1.2,1.068,2.12,1.023C163.617,317.535,164.784,317.577,165.949,317.577Zm-9.546,3.074.509.018c.348-.458.9-.879.994-1.384a1.124,1.124,0,0,0-1.139-1.3c-.7-.072-1.49.579-1.324,1.228A5.226,5.226,0,0,0,156.4,320.651Z" transform="translate(-72.936 -232.714)" fill="#fb8b09"/>
    <g id="Group_4" data-name="Group 4">
      <path id="Path_35" data-name="Path 35" d="M179.53,246.916c-.008-5.7-3.748-9.429-9.431-9.448-2.474-.008-4.95-.036-7.424.021a1.4,1.4,0,0,1-1.626-1.116,8.155,8.155,0,0,0-15.449.077c-.3.914-.731,1.031-1.542,1.03q-18.835-.028-37.667.006c-.831,0-1.24-.163-1.537-1.048a8.195,8.195,0,0,0-15.619.307c-.2.659-.544.733-1.1.73-2.511-.016-5.022-.024-7.533,0a12.8,12.8,0,0,0-2.709.223c-4.322,1-6.953,4.48-6.959,9.193q-.023,16.866-.006,33.732,0,16.867,0,33.733c0,5.682,3.777,9.441,9.435,9.44q22.794,0,45.589-.013a1.5,1.5,0,0,0,1.5-1.5h0a1.5,1.5,0,0,0-1.5-1.5q-22.516,0-45.033,0c-3.4,0-5.7-1.586-6.43-4.443a7.049,7.049,0,0,1-.174-1.726q-.013-27.4,0-54.794c0-.321.028-.642.046-1.031H176.109V301.21a2.068,2.068,0,0,0,1.116,1.864,1.554,1.554,0,0,0,2.307-1.352q0-10.592.006-21.184Q179.538,263.728,179.53,246.916Zm-26.179-12.668a4.731,4.731,0,0,1,4.881,4.876,4.817,4.817,0,0,1-4.877,4.92,4.9,4.9,0,1,1,0-9.8Zm-56.237,0a4.808,4.808,0,0,1,4.927,4.881,4.884,4.884,0,0,1-4.928,4.915,4.807,4.807,0,0,1-4.886-4.916A4.733,4.733,0,0,1,97.114,234.248Zm79,20.915H74.3c0-.46,0-.885,0-1.311,0-2.618-.032-5.239.027-7.856a5.334,5.334,0,0,1,5.187-5.165c2.91-.049,5.821-.032,8.731.011a1.228,1.228,0,0,1,.932.582c1.529,3.887,4.378,6,8.113,5.944,3.595-.054,6.423-2.3,7.81-6.2.035-.1.083-.192.135-.312h40.124c1.774,4.479,4.437,6.559,8.3,6.51,3.689-.047,6.431-2.272,7.98-6.525,3.242,0,6.515-.113,9.776.038a5.093,5.093,0,0,1,4.66,4.617C176.227,248.689,176.115,251.89,176.115,255.163Z" transform="translate(-70.922 -230.872)" fill="#0db154"/>
      <path id="Path_36" data-name="Path 36" d="M167.034,299.973a21.865,21.865,0,0,0-16.866-2,21.851,21.851,0,0,0-14.853,28.01,2.56,2.56,0,0,1,.239.506,21.982,21.982,0,0,0,42.113-2.385l.012-.044a17.959,17.959,0,0,0,0-10.869A22.693,22.693,0,0,0,167.034,299.973ZM156.09,337.716a18.7,18.7,0,1,1,18.842-18.66A18.691,18.691,0,0,1,156.09,337.716Z" transform="translate(-72.493 -232.516)" fill="#0db154"/>
    </g>
  </g>
</svg>
