<svg id="_360" data-name="360" xmlns="http://www.w3.org/2000/svg" width="31.558" height="30" viewBox="0 0 31.558 30">
  <g id="Group_27" data-name="Group 27" transform="translate(2.692 22.524)">
    <path id="Path_211" data-name="Path 211" d="M463.175,579.583c0,.938-.013,1.877,0,2.815.011.608-.218.927-.864.923-1.929-.012-3.857-.007-5.786,0-.547,0-.823-.248-.822-.8q0-2.932,0-5.864c0-.554.274-.8.821-.8,1.929,0,3.857.009,5.786,0,.644,0,.877.312.866.922C463.162,577.706,463.175,578.644,463.175,579.583Zm-6.2-2.491v4.968h4.954v-4.968Z" transform="translate(-455.708 -575.844)" fill="#7b7a7a"/>
    <path id="Path_212" data-name="Path 212" d="M519.424,575.842c.938,0,1.877.013,2.815,0,.61-.011.925.222.921.866-.011,1.929-.007,3.857,0,5.786,0,.546-.25.821-.8.82q-2.932,0-5.864,0c-.556,0-.8-.278-.8-.823,0-1.929.008-3.857,0-5.786,0-.645.315-.875.924-.864C517.548,575.854,518.486,575.842,519.424,575.842Zm-2.49,1.227v4.974H521.9v-4.974Z" transform="translate(-506.29 -575.836)" fill="#7b7a7a"/>
    <path id="Path_213" data-name="Path 213" d="M575.682,579.5c0-.912.013-1.825,0-2.737-.012-.609.221-.926.866-.922,1.929.011,3.857.007,5.786,0,.546,0,.821.25.82.8q0,2.932,0,5.864c0,.555-.276.8-.822.8-1.929,0-3.857-.009-5.786,0-.646,0-.875-.316-.864-.924C575.694,581.432,575.682,580.467,575.682,579.5Zm6.219,2.585v-4.971h-4.957v4.971Z" transform="translate(-556.883 -575.843)" fill="#7b7a7a"/>
  </g>
  <g id="Group_28" data-name="Group 28">
    <path id="Path_214" data-name="Path 214" d="M452.418,492.892c-.476-.466-.955-.929-1.428-1.4s-.535-.878-.205-1.215c.352-.359.742-.3,1.24.2q1.334,1.333,2.667,2.666a.775.775,0,0,1,0,1.274q-1.393,1.4-2.792,2.791a.754.754,0,0,1-1.12.1.746.746,0,0,1,.091-1.116c.546-.548,1.1-1.09,1.691-1.681-.141-.033-.212-.056-.284-.065-1.69-.189-3.389-.316-5.067-.58a18.491,18.491,0,0,1-6-1.916,6.318,6.318,0,0,1-1.975-1.566,2.783,2.783,0,0,1-.066-3.628,7.032,7.032,0,0,1,2.818-2.053.7.7,0,0,1,.928.349.709.709,0,0,1-.329.959c-.494.293-1,.56-1.48.881a3.557,3.557,0,0,0-.74.7,1.35,1.35,0,0,0,0,1.888,5.071,5.071,0,0,0,1.725,1.312,17.4,17.4,0,0,0,4.18,1.433,36.039,36.039,0,0,0,5.643.762c.15.01.3,0,.451,0Z" transform="translate(-438.526 -476.403)" fill="#7b7a7a"/>
    <path id="Path_215" data-name="Path 215" d="M526.348,454.784a7.19,7.19,0,0,1,1.2.01,2.19,2.19,0,0,1,1.818,2.16c.018,1.022.021,2.044,0,3.066a2.23,2.23,0,0,1-4.458.026q-.042-3.083,0-6.167a2.216,2.216,0,0,1,2.192-2.148c.481-.012.964-.008,1.445,0a.758.758,0,0,1,.823.735.75.75,0,0,1-.836.711c-.435,0-.87-.005-1.3,0a.82.82,0,0,0-.88.883C526.343,454.308,526.348,454.553,526.348,454.784Zm1.575,3.683c0-.47.008-.94,0-1.41a.788.788,0,1,0-1.57.007q-.012,1.41,0,2.82a.79.79,0,1,0,1.571-.007C527.929,459.407,527.923,458.937,527.923,458.467Z" transform="translate(-511.358 -448.643)" fill="#7b7a7a"/>
    <path id="Path_216" data-name="Path 216" d="M563.465,456.989c0-.987-.014-1.974,0-2.961a2.216,2.216,0,0,1,4.424-.213c.032,2.126.027,4.253,0,6.379a2.213,2.213,0,0,1-4.407.072c-.046-1.091-.01-2.185-.01-3.277Zm2.993.015c0-.962,0-1.925,0-2.888a.8.8,0,0,0-.748-.892.788.788,0,0,0-.8.842q-.021,2.94,0,5.881a.766.766,0,0,0,.787.849c.469-.007.762-.35.763-.9C566.46,458.929,566.458,457.967,566.458,457Z" transform="translate(-543.889 -448.684)" fill="#7b7a7a"/>
    <path id="Path_217" data-name="Path 217" d="M572.972,488.4a3.235,3.235,0,0,1-1.015,2.183,8.573,8.573,0,0,1-2.865,1.824,23.894,23.894,0,0,1-6.081,1.565c-.581.08-1.163.161-1.748.2a.7.7,0,0,1-.737-.658.739.739,0,0,1,.626-.774c.046-.008.094-.006.141-.011a31.537,31.537,0,0,0,5.083-.919,12.379,12.379,0,0,0,3.8-1.626,4.9,4.9,0,0,0,1-.928,1.271,1.271,0,0,0,0-1.74,5.13,5.13,0,0,0-1.766-1.373c-.2-.106-.4-.191-.6-.305a.713.713,0,0,1-.289-.947.7.7,0,0,1,.927-.335,7.692,7.692,0,0,1,2.613,1.758A3.15,3.15,0,0,1,572.972,488.4Z" transform="translate(-541.414 -476.279)" fill="#7b7a7a"/>
    <path id="Path_218" data-name="Path 218" d="M489.617,456.272c0-.842.024-1.627-.01-2.41a.722.722,0,0,0-.791-.65c-.458-.013-.917,0-1.375-.005a.724.724,0,1,1-.034-1.443,12.623,12.623,0,0,1,1.862.062,2.084,2.084,0,0,1,1.8,2.077c.031,1.445.013,2.89.014,4.336,0,.576.009,1.152,0,1.727a2.19,2.19,0,0,1-2.3,2.268c-.458,0-.917.005-1.375,0a.7.7,0,0,1-.76-.7.71.71,0,0,1,.728-.741c.469-.018.94,0,1.41-.007a.745.745,0,0,0,.846-.746c.032-.692.011-1.386.017-2.079,0-.215-.125-.242-.3-.241q-.952.007-1.9,0a.712.712,0,0,1-.8-.7.728.728,0,0,1,.8-.747C488.156,456.266,488.871,456.272,489.617,456.272Z" transform="translate(-479.105 -448.671)" fill="#7b7a7a"/>
    <path id="Path_219" data-name="Path 219" d="M596.142,436.492a2.218,2.218,0,1,1,2.222-2.2A2.2,2.2,0,0,1,596.142,436.492Zm0-2.987a.758.758,0,0,0-.769.751.771.771,0,0,0,.772.788.762.762,0,0,0,.766-.79A.75.75,0,0,0,596.144,433.5Z" transform="translate(-569.583 -432.055)" fill="#7b7a7a"/>
  </g>
</svg>
