<svg xmlns="http://www.w3.org/2000/svg" width="138.141" height="104.19" viewBox="0 0 138.141 104.19">
  <g id="_4-Meetings" data-name="4-Meetings" transform="translate(-67.086 -39.754)">
    <g id="Group_1476" data-name="Group 1476" transform="translate(632.039 -35.673)">
      <g id="Group_1473" data-name="Group 1473" transform="translate(-475.778 81.56)">
        <path id="Path_1276" data-name="Path 1276" d="M-95.957,107.058c-.164.611-.329,1.221-.491,1.832a12.2,12.2,0,0,1-12.847,9.066,12.293,12.293,0,0,1-11.155-11.924,12.2,12.2,0,0,1,10.278-12.277,12.153,12.153,0,0,1,13.935,9.781c.062.328.185.644.279.966ZM-108.277,114a8.2,8.2,0,0,0,8.269-8.112,8.2,8.2,0,0,0-8.175-8.332,8.2,8.2,0,0,0-8.267,8.109A8.2,8.2,0,0,0-108.277,114Z" transform="translate(144.923 -93.594)" fill="#0db154"/>
        <path id="Path_1277" data-name="Path 1277" d="M-212.2,227.881a1.953,1.953,0,0,0,1.952,1.976q5.893,0,11.786.014a13.46,13.46,0,0,0,5.807-1.133c1.6-.733,3.265-1.309,4.963-1.978v7.263c-4,0-7.909-.019-11.82.005a10.064,10.064,0,0,0-10.113,8.084c-2.179,9.926-4.291,19.867-6.425,29.8-.42,1.953.354,2.92,2.357,2.927,3.536.013,7.072,0,10.608,0,2.324,0,2.629-.221,3.371-2.453,2.319-6.978,4.653-13.952,6.941-20.941a1.413,1.413,0,0,1,1.608-1.177q6.837.081,13.675.016a10.2,10.2,0,0,0,9.932-7.7c.1-.4.242-.8.364-1.194V210.455a1.292,1.292,0,0,1-.215-.305c-1.162-3.485-3.3-4.911-7.1-4.753-3.57.149-7.143.179-10.71-.019a2.049,2.049,0,0,0-1.965.774c-2.611,3.2-5.362,6.3-7.88,9.568a4.485,4.485,0,0,1-4.279,1.981,48.112,48.112,0,0,0-7.405.044,5.634,5.634,0,0,0-3.8,1.853,6.4,6.4,0,0,0-1.6,4.234Zm19.46,18.413c-2.225,0-2.566.25-3.282,2.4-2.309,6.94-4.645,13.872-6.9,20.828a1.6,1.6,0,0,1-1.875,1.341c-2.249-.085-4.5-.026-6.964-.026.918-4.308,1.787-8.423,2.673-12.534q1.612-7.484,3.246-14.964c.759-3.495,3.013-5.312,6.6-5.316q6.455-.006,12.911,0c2.067,0,2.727-.674,2.728-2.772q0-5.433,0-10.867c-.006-2.273-1.191-3.072-3.308-2.253a9.356,9.356,0,0,0-1.066.424,30.9,30.9,0,0,1-17.641,3.3c-1.572-.131-2.509-.8-2.521-2.092s.906-2.093,2.488-2.1c3.068-.009,6.136-.031,9.2.01a2.975,2.975,0,0,0,2.532-1.186c2.812-3.424,5.677-6.8,8.486-10.232a2.081,2.081,0,0,1,1.82-.89c3.238.05,6.477.016,9.715.022,1.928,0,2.65.7,2.651,2.587q.007,14,0,28a6.111,6.111,0,0,1-6.279,6.313C-182.6,246.308-187.667,246.294-192.738,246.294Z" transform="translate(216.159 -176.792)" fill="#0db154"/>
      </g>
      <g id="Group_1474" data-name="Group 1474" transform="translate(-564.953 81.56)">
        <path id="Path_1278" data-name="Path 1278" d="M-564.953,104.5c.095-.322.217-.638.279-.966a12.153,12.153,0,0,1,13.935-9.781,12.2,12.2,0,0,1,10.278,12.277,12.293,12.293,0,0,1-11.155,11.924,12.2,12.2,0,0,1-12.847-9.066c-.162-.611-.327-1.221-.491-1.832Zm20.493,1.166a8.2,8.2,0,0,0-8.267-8.109,8.2,8.2,0,0,0-8.175,8.332A8.2,8.2,0,0,0-552.633,114,8.2,8.2,0,0,0-544.46,105.667Z" transform="translate(564.953 -93.594)" fill="#0db154"/>
        <path id="Path_1279" data-name="Path 1279" d="M-520,223.832a6.4,6.4,0,0,0-1.6-4.234,5.635,5.635,0,0,0-3.8-1.853,48.112,48.112,0,0,0-7.405-.044,4.486,4.486,0,0,1-4.28-1.981c-2.518-3.273-5.268-6.366-7.88-9.568a2.049,2.049,0,0,0-1.965-.774c-3.567.2-7.141.168-10.71.019-3.8-.158-5.936,1.268-7.1,4.753a1.292,1.292,0,0,1-.215.305v30.938c.122.4.261.791.364,1.194a10.2,10.2,0,0,0,9.932,7.7q6.837.061,13.675-.016a1.413,1.413,0,0,1,1.608,1.177c2.287,6.989,4.621,13.963,6.941,20.941.742,2.232,1.047,2.454,3.371,2.453,3.536,0,7.072.008,10.608,0,2-.007,2.776-.974,2.357-2.927-2.135-9.936-4.246-19.877-6.425-29.8a10.064,10.064,0,0,0-10.113-8.084c-3.911-.025-7.822-.005-11.82-.005v-7.263c1.7.669,3.366,1.245,4.963,1.978a13.46,13.46,0,0,0,5.807,1.133q5.893-.01,11.786-.014a1.953,1.953,0,0,0,1.952-1.976Zm-34.626,22.457a6.111,6.111,0,0,1-6.279-6.313q-.021-14,0-28c0-1.884.723-2.584,2.651-2.587,3.238-.006,6.477.028,9.715-.022a2.081,2.081,0,0,1,1.82.89c2.808,3.427,5.674,6.807,8.486,10.232a2.975,2.975,0,0,0,2.532,1.186c3.067-.041,6.136-.02,9.2-.01,1.581,0,2.5.793,2.488,2.1s-.948,1.961-2.521,2.092a30.9,30.9,0,0,1-17.641-3.3,9.354,9.354,0,0,0-1.066-.424c-2.116-.819-3.3-.02-3.308,2.253q-.015,5.433,0,10.867c0,2.1.661,2.771,2.728,2.772q6.455,0,12.911,0c3.592,0,5.845,1.821,6.6,5.316q1.625,7.482,3.246,14.964c.886,4.111,1.755,8.226,2.673,12.534-2.46,0-4.714-.059-6.964.026a1.6,1.6,0,0,1-1.875-1.341c-2.259-6.956-4.594-13.888-6.9-20.828-.717-2.153-1.057-2.4-3.282-2.4C-544.479,246.294-549.55,246.308-554.621,246.288Z" transform="translate(564.953 -176.792)" fill="#0db154"/>
      </g>
      <g id="Group_1475" data-name="Group 1475" transform="translate(-515.988 75.427)">
        <path id="Path_1280" data-name="Path 1280" d="M-316.367,89.636a12.307,12.307,0,0,1-12.176,12.246,12.313,12.313,0,0,1-12.276-12.148,12.3,12.3,0,0,1,12.242-12.307A12.3,12.3,0,0,1-316.367,89.636Zm-12.214-8.2a8.2,8.2,0,0,0-8.233,8.145,8.2,8.2,0,0,0,8.21,8.3,8.2,8.2,0,0,0,8.232-8.147A8.192,8.192,0,0,0-328.581,81.432Z" transform="translate(349.158 -77.427)" fill="#fb8b09"/>
        <path id="Path_1281" data-name="Path 1281" d="M-332.3,217.683l-.207-7.488c-.1-2.933-.073-5.821-.106-8.707a10.169,10.169,0,0,0-7.252-9.762c-2.682-.826-5.4-1.548-8.07-2.394a2.387,2.387,0,0,0-2.749.739c-.707.782-1.423,1.557-2.364,2.586-.933-1.046-1.652-1.876-2.4-2.683a2.24,2.24,0,0,0-2.534-.668c-2.759.86-5.573,1.555-8.311,2.473-3.821,1.28-6.366,3.919-6.879,7.948a86.711,86.711,0,0,0-.254,9.18c-.009.419,0,.838,0,1.257v7.494Q-352.868,217.679-332.3,217.683Zm-37.05-16.91a5.55,5.55,0,0,1,4.136-5.153c2.257-.751,4.552-1.391,6.849-2.011a1.521,1.521,0,0,1,1.193.31c.867.751,1.636,1.614,2.462,2.414,1.23,1.189,2.16,1.175,3.414-.025a.557.557,0,0,0,.089-.092c1.768-2.742,4.077-3.082,6.9-1.687a21.6,21.6,0,0,0,3.169.956,6.149,6.149,0,0,1,4.522,6.095c.017,3.958,0,7.917,0,12.017h-4.177c0-1.888.007-3.707,0-5.527-.008-1.617-.777-2.587-2.016-2.573s-1.976.974-1.984,2.608c-.009,1.785,0,3.571,0,5.459h-16.448c0-1.625,0-3.306,0-4.988,0-2.089-.668-3.1-2.024-3.078s-1.98,1.017-1.981,3.124c0,1.614,0,3.229,0,4.944h-4c-.02-.023-.123-.085-.123-.149C-369.389,209.2-369.537,204.98-369.355,200.773Z" transform="translate(373.435 -160.597)" fill="#fb8b09"/>
      </g>
      <line id="Line_114" data-name="Line 114" x2="55" transform="translate(-524.383 137.173)" fill="none" stroke="#fb8b09" stroke-linecap="round" stroke-width="4"/>
    </g>
  </g>
</svg>
