<svg xmlns="http://www.w3.org/2000/svg" width="131.748" height="110.213" viewBox="0 0 131.748 110.213">
  <g id="_5-Discussion_Board" data-name="5-Discussion Board" transform="translate(-112.07 -229.881)">
    <path id="Path_1118" data-name="Path 1118" d="M133.849,269.932c-4.412,0-8.537.013-12.662,0-5.562-.022-9.091-3.558-9.106-9.147-.019-7.074-.006-14.149,0-21.223,0-6.284,3.353-9.669,9.606-9.67q51.54-.005,103.08,0c3.453,0,6.906-.029,10.359.012a8.428,8.428,0,0,1,8.674,8.692q.046,11.291,0,22.582a8.5,8.5,0,0,1-8.819,8.749c-4.235.021-8.47,0-12.974,0V275.6c0,1.924-.017,3.849,0,5.773.016,1.374-.173,2.625-1.652,3.209-1.524.6-2.444-.3-3.318-1.345-3.345-3.99-6.724-7.951-10.031-11.972a3.283,3.283,0,0,0-2.863-1.365c-5.6.075-11.208.064-16.811,0a1.911,1.911,0,0,0-2.116,1.415c-1.491,3.723-3.107,7.4-4.644,11.1-.5,1.21-1.116,2.314-2.58,2.349-1.556.038-2.2-1.088-2.728-2.37-1.5-3.658-3.1-7.28-4.577-10.947a2.035,2.035,0,0,0-2.208-1.551c-5.716.074-11.434,0-17.151.077a3.2,3.2,0,0,0-2.118.99c-3.528,4.056-6.969,8.187-10.429,12.3-.835.993-1.712,1.859-3.17,1.36-1.506-.515-1.773-1.721-1.765-3.123C133.863,277.725,133.849,273.945,133.849,269.932Zm82.847,5.2c.205-.339.3-.427.306-.516q.03-3.054.04-6.108c.013-2.74.778-3.518,3.528-3.523,4.81-.011,9.62.015,14.429-.015,2.257-.014,3.8-1.335,3.815-3.453q.086-11.625.006-23.252a3.4,3.4,0,0,0-3.324-3.419c-.729-.073-1.47-.054-2.2-.054q-35.394,0-70.788,0-20.285,0-40.571,0c-3.743,0-4.9,1.152-4.9,4.823,0,7.072-.014,14.144.005,21.216.007,2.835,1.327,4.133,4.164,4.144,4.244.017,8.488.006,12.732,0,4.577,0,4.891.312,4.89,4.9q0,2.544,0,5.087a85.924,85.924,0,0,0,7.288-8.135,4.674,4.674,0,0,1,4.085-1.88c6.676.069,13.354.026,20.031.029,2.822,0,3.17.242,4.286,2.885,1.063,2.518,2.133,5.034,3.4,8.033,1.341-3.156,2.541-5.808,3.591-8.518a3.4,3.4,0,0,1,3.606-2.422q10.44.076,20.88,0a4.253,4.253,0,0,1,3.626,1.749C211.886,269.516,214.26,272.243,216.7,275.127Z" transform="translate(0 0)" fill="#fb8b09"/>
    <path id="Path_1119" data-name="Path 1119" d="M240.7,517.451h-5.249c.33-3.622.187-7.249,1.076-10.6,1.4-5.276,5.716-7.4,10.795-8.167.781-.118,1.58-.115,2.365-.213a3.672,3.672,0,0,1,3.451,1.354c1.968,2.254,4.011,4.442,6.209,6.863a59.054,59.054,0,0,0,4.373-5.221c1.731-2.6,3.883-3.252,6.931-2.877,6.077.747,10.812,3.968,11.908,9.2.649,3.1.523,6.353.753,9.654h-5.159c0-1.743-.068-3.472.012-5.2.308-6.682-4.2-8.327-8.9-8.747-.465-.042-1.1.48-1.468.9-2.042,2.345-4.016,4.749-6.032,7.117-1.6,1.885-2.97,1.9-4.66.059-2.178-2.376-4.287-4.818-6.541-7.118a3.154,3.154,0,0,0-2.289-.845c-5.545.649-7.566,3.005-7.574,8.6C240.7,513.9,240.7,515.587,240.7,517.451Z" transform="translate(-81.489 -177.364)" fill="#0db154"/>
    <path id="Path_1120" data-name="Path 1120" d="M417.577,419.3a12.987,12.987,0,0,1-2.367,9.007,12.194,12.194,0,0,1-22.029-6.871,32.834,32.834,0,0,1,.382-7.238c1.319-6.134,7.006-9.9,13.471-9.246,5.65.573,10.323,5.747,10.538,11.68C417.6,417.474,417.577,418.322,417.577,419.3Zm-19.441-.279h-.026c0,.846-.052,1.7.009,2.538a7.343,7.343,0,0,0,7.115,6.83,7.261,7.261,0,0,0,7.344-6.563,30.406,30.406,0,0,0-.032-5.739,7.267,7.267,0,0,0-7.206-6.345,7.356,7.356,0,0,0-7.192,6.574C398.068,417.205,398.136,418.113,398.136,419.016Z" transform="translate(-185.644 -115.574)" fill="#0db154"/>
    <path id="Path_1121" data-name="Path 1121" d="M146.917,418.685c-.378-4.788,1.089-8.91,5.142-11.795a12.182,12.182,0,0,1,19.235,9.483,30.434,30.434,0,0,1-.388,7.419,12.131,12.131,0,0,1-12.719,9.287A12.334,12.334,0,0,1,146.921,421.3C146.89,420.456,146.917,419.606,146.917,418.685Zm19.656.231-.2-.02c0-.846.049-1.7-.008-2.538a7.388,7.388,0,0,0-7.11-6.863,7.277,7.277,0,0,0-7.323,6.411,29.636,29.636,0,0,0-.017,5.738,7.286,7.286,0,0,0,6.375,6.477,7.188,7.188,0,0,0,7.694-5.05A25.739,25.739,0,0,0,166.573,418.917Z" transform="translate(-22.977 -115.342)" fill="#0db154"/>
    <path id="Path_1122" data-name="Path 1122" d="M269.962,418.536a12.258,12.258,0,0,1,4.312-10.975,12.188,12.188,0,0,1,20.076,8.89,29.733,29.733,0,0,1-.365,7.238,12.1,12.1,0,0,1-12.754,9.4,12.34,12.34,0,0,1-11.265-11.924C269.943,420.38,269.962,419.588,269.962,418.536Zm19.683.206-.2-.019c0-.733.04-1.47-.007-2.2a7.393,7.393,0,0,0-7.142-7.014,7.316,7.316,0,0,0-7.358,6.76,32.559,32.559,0,0,0,.008,5.239,7.337,7.337,0,0,0,6.417,6.63,7.207,7.207,0,0,0,7.687-5.07A26.93,26.93,0,0,0,289.646,418.742Z" transform="translate(-104.239 -115.356)" fill="#0db154"/>
    <path id="Path_1123" data-name="Path 1123" d="M118.073,517.448h-4.916c-.014-3.709-.515-7.4.752-10.926,1.819-5.07,5.909-7.15,10.922-7.862.671-.1,1.355-.1,2.026-.192a3.871,3.871,0,0,1,3.746,1.448c1.945,2.254,3.99,4.423,6.124,6.771,1.985-2.351,3.876-4.513,5.672-6.751a3.51,3.51,0,0,1,3.549-1.446c2.362.378,4.726.746,7.434,1.172l-2.108,4.66c-1.257-.253-2.384-.388-3.449-.718-1.45-.449-2.283.183-3.137,1.264-1.785,2.262-3.682,4.437-5.549,6.634-1.6,1.882-2.973,1.906-4.662.068-2.18-2.373-4.286-4.818-6.539-7.119a3.146,3.146,0,0,0-2.283-.856c-5.565.667-7.585,3.021-7.58,8.589C118.074,513.877,118.073,515.568,118.073,517.448Z" transform="translate(-0.646 -177.354)" fill="#0db154"/>
    <path id="Path_1124" data-name="Path 1124" d="M382.737,504.339l-1.924-4.268a16.634,16.634,0,0,1,8.948-1.448c.655.065,1.332.792,1.832,1.361,1.893,2.153,3.718,4.367,5.692,6.7,2.147-2.363,4.191-4.536,6.141-6.79a3.733,3.733,0,0,1,3.579-1.433c1.285.181,2.591.247,3.856.515,5.916,1.255,9.313,4.886,9.922,10.868.25,2.453.041,4.952.041,7.554h-4.884c0-1.943-.029-3.847.005-5.75.114-6.436-4.129-7.78-8.286-8.172a2.336,2.336,0,0,0-1.508.855c-2.241,2.392-4.417,4.846-6.637,7.259-1.676,1.822-3.041,1.783-4.656-.113-1.832-2.152-3.7-4.277-5.446-6.5-.926-1.177-1.854-1.864-3.421-1.36C384.987,503.949,383.921,504.087,382.737,504.339Z" transform="translate(-177.492 -177.358)" fill="#0db154"/>
  </g>
</svg>
