<svg id="_6-Members" data-name="6-Members" xmlns="http://www.w3.org/2000/svg" width="137" height="108.924" viewBox="0 0 137 108.924">
  <path id="Path_44" data-name="Path 44" d="M461.2,271.457l1.065.3-.076-.331a25.97,25.97,0,0,1-.657-3.589c-.068-.778-.322-.974-1.008-1.133-.635-.15-1.271-.3-1.906-.453-1.893-.453-3.85-.922-5.784-1.29a.427.427,0,0,0-.084-.007,1.763,1.763,0,0,0-1.056.45,9,9,0,0,1-6.513,2.567,8.776,8.776,0,0,1-6.413-2.537,1.8,1.8,0,0,0-1.031-.484.184.184,0,0,0-.05,0q-1.024.247-2.054.488a75.842,75.842,0,0,0-8.714,2.42,14,14,0,0,0-9.49,11.491c-.463,2.916-.649,5.941-.83,8.868-.093,1.5-.189,3.05-.321,4.574a4.248,4.248,0,0,0,1.608,3.765l.084.073a18.684,18.684,0,0,0,2.458,1.9c8.272,5,17.616,5.416,26.477,5.416a.751.751,0,0,0,.363-.265c.354-1.131.656-2.3.975-3.548l.124-.483h-.086c-.189,0-.371,0-.552-.014-1.45-.084-2.9-.154-4.354-.223-3.48-.167-7.079-.339-10.607-.717a21.055,21.055,0,0,1-10.494-3.826c-.611-.456-1.752-1.619-1.7-2.77.219-4.766.522-8.407.982-11.805a10.3,10.3,0,0,1,7.043-8.586,58.868,58.868,0,0,1,6.363-1.861l.63-.159a1.94,1.94,0,0,1,.471-.056,3.539,3.539,0,0,1,1.634.479,14.258,14.258,0,0,0,15.046,0,3.549,3.549,0,0,1,1.665-.435,2.457,2.457,0,0,1,.607.071C457.083,270.283,459.083,270.853,461.2,271.457Z" transform="translate(-416.26 -224.539)" fill="#0db154"/>
  <path id="Path_45" data-name="Path 45" d="M429.049,266.564c3.087,4.675,7.754,7.356,12.8,7.356a15.358,15.358,0,0,0,12.359-6.7,21.7,21.7,0,0,0,4.058-13.523c-.054-.552-.1-1.162-.155-1.771-.107-1.291-.218-2.629-.393-3.924-.887-6.544-4.658-10.979-10.348-12.167a28,28,0,0,0-5.736-.518c-.721,0-1.479.019-2.314.054-6.537.287-11.094,3.965-12.831,10.358a22.217,22.217,0,0,0-.671,3.514C425.295,254.235,425.189,260.721,429.049,266.564Zm.593-13.044c.09-.645.169-1.293.249-1.94.177-1.431.359-2.91.646-4.356.867-4.351,3.653-6.982,7.847-7.409a31.189,31.189,0,0,1,3.167-.161,32.226,32.226,0,0,1,4.867.37A7.5,7.5,0,0,1,452.6,245.3c1.993,6.17,1.914,11.624-.241,16.673-2.042,4.785-6.005,7.642-10.6,7.642-.116,0-.234,0-.352-.005a10.488,10.488,0,0,1-8.015-4.325,18.123,18.123,0,0,1-3.758-11.665v-.05Z" transform="translate(-412.909 -235.225)" fill="#0db154"/>
  <path id="Path_46" data-name="Path 46" d="M489.45,256.688c-1.6-5.592-5.467-9.1-11.479-10.443a34.007,34.007,0,0,0-4.148-.574c-.506-.049-.981-.094-1.407-.146-.627.038-1.189.064-1.707.088-1.035.05-1.853.088-2.673.186-7.441.88-12.192,4.661-14.122,11.235a44.326,44.326,0,0,0-1.426,8.692A26.28,26.28,0,0,0,455.5,281c3.906,6.993,9.11,10.446,15.91,10.558l.344,0c7.018,0,12.5-3.608,16.295-10.725C491.741,273.909,492.187,266.235,489.45,256.688ZM487,267.632c-.184,6.488-1.9,11.287-5.4,15.1a12.823,12.823,0,0,1-19.632.1,17.294,17.294,0,0,1-4.951-10.815,59.247,59.247,0,0,1,.588-12.216c.827-5.575,4.4-8.964,10.065-9.54a38.545,38.545,0,0,1,3.9-.2,33.85,33.85,0,0,1,5.55.444c4.555.761,7.645,3.879,8.7,8.782.407,1.884.634,3.823.854,5.7.1.845.2,1.688.314,2.531l.008.057Z" transform="translate(-403.241 -231.543)" fill="#fb8b09"/>
  <path id="Path_47" data-name="Path 47" d="M510.389,314.47c-.151-1.9-.242-3.828-.329-5.7-.106-2.288-.218-4.654-.441-6.962-.867-8.947-5.257-14.8-13.051-17.4-3.178-1.06-6.535-1.815-9.781-2.545l-1.736-.393-.067-.684h0v.679a2.028,2.028,0,0,0-1.173.552A11.976,11.976,0,0,1,467.747,282a1.991,1.991,0,0,0-1.161-.533.357.357,0,0,0-.073.007c-.9.224-1.814.441-2.724.659a87.935,87.935,0,0,0-10.079,2.833,16.308,16.308,0,0,0-11.054,13.28c-.539,3.356-.777,6.837-1.008,10.2-.133,1.928-.269,3.92-.461,5.876a5.635,5.635,0,0,0,2.291,5.087,27.976,27.976,0,0,0,10.087,5.405c6.223,2.031,13.077,2.936,22.224,2.936h.271c8.285,0,14.9-.818,20.809-2.573a28.779,28.779,0,0,0,11.366-5.894A5.49,5.49,0,0,0,510.389,314.47Zm-6.792,3.32a26.588,26.588,0,0,1-11.073,4.192c-3.872.573-7.827.986-11.651,1.385-1.656.173-3.31.346-4.964.531l-.057.007-.058,0c-7.351-.4-14.952-.822-22.13-3.394a32.6,32.6,0,0,1-6.748-3.656,3.938,3.938,0,0,1-1.424-3.137l.043-.669c.293-4.575.595-9.307,1.265-13.922a12.431,12.431,0,0,1,8.49-10.241,79.855,79.855,0,0,1,7.909-2.351l1.257-.328a1.789,1.789,0,0,1,.46-.057,3.875,3.875,0,0,1,1.808.58,17.841,17.841,0,0,0,9.06,2.669,18.038,18.038,0,0,0,9.086-2.661,4.014,4.014,0,0,1,1.936-.507,3.046,3.046,0,0,1,.634.063c2.005.426,4.132.971,6.69,1.718,6.832,1.992,10.636,6.79,11.306,14.262.139,1.552.226,3.129.309,4.654.106,1.932.215,3.931.433,5.873A4.932,4.932,0,0,1,503.6,317.79Z" transform="translate(-407.285 -218.829)" fill="#fb8b09"/>
  <path id="Path_48" data-name="Path 48" d="M529.131,292.719c-.116-1.5-.19-3.014-.264-4.483-.116-2.332-.237-4.743-.518-7.083-.812-6.756-4.208-11.262-10.091-13.391a74.678,74.678,0,0,0-8.654-2.356c-.654-.15-1.309-.3-1.961-.454h-.023a1.9,1.9,0,0,0-1.041.541,9.473,9.473,0,0,1-12.809-.018,1.844,1.844,0,0,0-1.056-.521c-2.566.5-5.113,1.14-7.577,1.759l-.649.162a1.567,1.567,0,0,0-.457.205c-.32,1.487-.584,2.984-.841,4.43l-.044.243,1.121-.32c2.063-.592,4.011-1.151,6.022-1.65a2.639,2.639,0,0,1,.646-.075,3.818,3.818,0,0,1,1.777.458,15.37,15.37,0,0,0,7.488,2.106,15.012,15.012,0,0,0,7.413-2.1,3.578,3.578,0,0,1,1.68-.551,1.561,1.561,0,0,1,.429.057l1,.275a64.005,64.005,0,0,1,6.948,2.2,9.258,9.258,0,0,1,5.871,7.005,85.3,85.3,0,0,1,1.246,9.658c.367,5-.184,5.888-4.918,7.91l-.321.142a6.507,6.507,0,0,1-1.473.516c-1.049.192-2.1.4-3.147.6-2.884.563-5.867,1.146-8.842,1.454a36.836,36.836,0,0,1-3.85.173c-1.01,0-2.027-.025-3.054-.049-.731-.019-1.467-.037-2.208-.046.067.223.133.439.2.653a32.476,32.476,0,0,1,.854,3.189c.113.576.208.649.857.654q.447,0,.894,0a65.665,65.665,0,0,0,16.578-1.834c4.741-1.214,8.224-2.931,10.96-5.407A4.679,4.679,0,0,0,529.131,292.719Z" transform="translate(-392.147 -224.54)" fill="#0db154"/>
  <path id="Path_49" data-name="Path 49" d="M511,268.844c3.65-4.069,5.405-9.011,5.366-15.1-.056-.566-.106-1.195-.158-1.823-.107-1.331-.219-2.707-.408-4.038-1.008-7.066-4.985-11.215-11.821-12.329a24.633,24.633,0,0,0-3.943-.3,32.62,32.62,0,0,0-3.592.207c-6.465.716-10.706,4.59-11.94,10.91a46.77,46.77,0,0,0-.733,9.65,19.131,19.131,0,0,0,5.264,12.944A14.473,14.473,0,0,0,511,268.844Zm-11.009.876a10.611,10.611,0,0,1-8.524-4.543,24.4,24.4,0,0,1-3.061-6.714l-.042-.125a12.325,12.325,0,0,1-.479-3.324c-.029-.529-.059-1.08-.118-1.652l-.008-.086.011-.086c.079-.548.15-1.122.223-1.713.174-1.407.355-2.861.659-4.326.887-4.277,3.638-6.869,7.744-7.3a31.153,31.153,0,0,1,3.207-.162,36.08,36.08,0,0,1,4.819.332,7.039,7.039,0,0,1,5.839,4.4c3.033,8.1,2.491,14.842-1.654,20.627A10.62,10.62,0,0,1,499.99,269.721Z" transform="translate(-391.925 -235.248)" fill="#0db154"/>
</svg>
