<svg xmlns="http://www.w3.org/2000/svg" width="21.394" height="21.713" viewBox="0 0 21.394 21.713">
  <g id="Manage" transform="translate(0.75 0.75)">
    <ellipse id="Ellipse_83" data-name="Ellipse 83" cx="2.713" cy="2.756" rx="2.713" ry="2.756" transform="translate(7.234 7.35)" fill="none" stroke="#545454" stroke-linecap="round" stroke-linejoin="round" stroke-width="1.5"/>
    <path id="Path_69" data-name="Path 69" d="M17.639,13.863a1.534,1.534,0,0,0,.3,1.672l.054.055a1.858,1.858,0,0,1,0,2.6,1.788,1.788,0,0,1-2.559,0l-.054-.055a1.475,1.475,0,0,0-1.646-.3,1.517,1.517,0,0,0-.9,1.387v.156a1.809,1.809,0,1,1-3.617,0v-.083a1.514,1.514,0,0,0-.977-1.387,1.475,1.475,0,0,0-1.646.3l-.054.055a1.789,1.789,0,0,1-2.559,0,1.858,1.858,0,0,1,0-2.6l.054-.055a1.534,1.534,0,0,0,.3-1.672,1.492,1.492,0,0,0-1.365-.919H2.809a1.838,1.838,0,0,1,0-3.675H2.89A1.494,1.494,0,0,0,4.255,8.35a1.534,1.534,0,0,0-.3-1.672L3.9,6.623a1.858,1.858,0,0,1,0-2.6,1.788,1.788,0,0,1,2.559,0l.054.055a1.475,1.475,0,0,0,1.646.3h.072a1.517,1.517,0,0,0,.9-1.387V2.838a1.809,1.809,0,1,1,3.617,0V2.92a1.517,1.517,0,0,0,.9,1.387A1.475,1.475,0,0,0,15.306,4l.054-.055a1.788,1.788,0,0,1,2.559,0,1.858,1.858,0,0,1,0,2.6l-.054.055a1.534,1.534,0,0,0-.3,1.672V8.35a1.492,1.492,0,0,0,1.365.919h.154a1.838,1.838,0,0,1,0,3.675H19A1.492,1.492,0,0,0,17.639,13.863Z" transform="translate(-1 -1)" fill="none" stroke="#545454" stroke-linecap="round" stroke-linejoin="round" stroke-width="1.5"/>
  </g>
</svg>
