<svg xmlns="http://www.w3.org/2000/svg" width="34.204" height="30.363" viewBox="0 0 34.204 30.363">
  <g id="Network" transform="translate(0.5 0.502)">
    <path id="Union_6" data-name="Union 6" d="M25.492,29.361V27.844h6.24V23.438a1.79,1.79,0,0,0-1.347-1.759l-6.861-1.7a1.3,1.3,0,0,1-.975-1.272V16.07a2.127,2.127,0,0,1,.577-1.468c.743-.78,3.185-3.564,3.31-6.6a6.77,6.77,0,0,0-1.611-4.994,4.613,4.613,0,0,0-3.649-1.495,5.77,5.77,0,0,0-3.5,1.635L16.713,2a6.958,6.958,0,0,1,4.473-2,6.312,6.312,0,0,1,4.692,1.956,8.288,8.288,0,0,1,2.028,6.113c-.144,3.477-2.658,6.471-3.733,7.6a.577.577,0,0,0-.153.4v2.471L30.732,20.2A3.3,3.3,0,0,1,33.2,23.438v5.923ZM0,29.04V24.385a3.587,3.587,0,0,1,2.491-3.433l5.046-1.535.074-.808c-1.929.024-5.385-.359-6.381-3.32l-.294-.88.9-.12c.241-.037,2.407-.442,2.407-3.343,0-5.793,1.841-9.113,5.476-9.866l.028,0a4.92,4.92,0,0,1,1.745,0c3.637.753,5.479,4.073,5.479,9.866,0,2.9,2.164,3.306,2.41,3.345l.882.13-.287.868c-.991,2.961-4.462,3.35-6.377,3.32l.074.808,5.046,1.535a3.587,3.587,0,0,1,2.491,3.433V29.04Zm8.976-9.182a1.066,1.066,0,0,1-.736.928L2.908,22.407a2.066,2.066,0,0,0-1.437,1.979v3.139H19.734V24.385A2.068,2.068,0,0,0,18.3,22.407l-5.327-1.62a1.062,1.062,0,0,1-.741-.931l-.259-2.873.873.074c1.014.088,4.118.187,5.369-1.543A4.638,4.638,0,0,1,15.5,10.947c0-5.04-1.4-7.78-4.3-8.378a3.476,3.476,0,0,0-1.209,0c-2.882.6-4.281,3.344-4.281,8.375a4.639,4.639,0,0,1-2.719,4.566c1.257,1.73,4.358,1.632,5.37,1.543l.874-.074Z" fill="#808080" stroke="rgba(0,0,0,0)" stroke-miterlimit="10" stroke-width="1"/>
  </g>
</svg>
