<svg xmlns="http://www.w3.org/2000/svg" width="27.193" height="30" viewBox="0 0 27.193 30">
  <path id="Notifications" d="M-1343.571,218.5a3.748,3.748,0,0,0,.74-2.169l.009-.191h8.509a1.179,1.179,0,0,0,1.334-1.032,3.808,3.808,0,0,0-1.374-4.114,4.825,4.825,0,0,1-1.842-2.157,12.622,12.622,0,0,1-.933-3.414,41.889,41.889,0,0,0-.9-5.1,7.993,7.993,0,0,0-5.748-6.232.587.587,0,0,1-.15-.075l-.034-.021-.158-.089.073-.166a2.676,2.676,0,0,0-.76-3.227,2.626,2.626,0,0,0-3.065-.144,2.614,2.614,0,0,0-1.033,1.259,2.629,2.629,0,0,0,.077,2.126l.089.2-.2.074-.114.042c-.077.029-.147.055-.218.078a7.756,7.756,0,0,0-5.053,4.581,23,23,0,0,0-1.234,5.182c-.043.275-.084.552-.125.828-.1.7-.21,1.425-.361,2.131a6.423,6.423,0,0,1-2.53,4.205,3.758,3.758,0,0,0-1.318,4.091,1.2,1.2,0,0,0,1.3.98h8.53l.02.267c0,.047.007.086.009.125a3.634,3.634,0,0,0,2.583,3.268c.12.036.24.068.361.1l.144.039h1a.506.506,0,0,1,.141-.053A3.551,3.551,0,0,0-1343.571,218.5Zm-3.684-26.7a1.156,1.156,0,0,1,.808-.358,1.162,1.162,0,0,1,.807.34,1.144,1.144,0,0,1,.348.8,1.179,1.179,0,0,1-1.138,1.156h0a1.175,1.175,0,0,1-1.151-1.138A1.135,1.135,0,0,1-1347.255,191.8Zm-11.339,22.819.035-.23c.021-.134.039-.266.058-.4.042-.3.083-.58.138-.864a1.339,1.339,0,0,1,.551-.764c.045-.037.09-.075.133-.114.133-.118.268-.235.4-.352a10.919,10.919,0,0,0,1.136-1.08,7.45,7.45,0,0,0,1.479-3.313c.23-1.031.393-2.1.551-3.132l.045-.292a24.069,24.069,0,0,1,.989-4.421,6.293,6.293,0,0,1,5.091-4.286,7.863,7.863,0,0,1,4.791.513,6.443,6.443,0,0,1,3.66,4.611,39.309,39.309,0,0,1,.911,5.092,13.868,13.868,0,0,0,1.119,4,6.5,6.5,0,0,0,2.149,2.544,2.164,2.164,0,0,1,.97,2.3l-.018.18Zm12.217,3.818-.082,0a2.008,2.008,0,0,1-1.374-.547,2.173,2.173,0,0,1-.689-1.536l-.007-.207h4.142l.009.191a1.948,1.948,0,0,1-.527,1.409A2.131,2.131,0,0,1-1346.376,218.441Z" transform="translate(1360.047 -189.942)" fill="#7b7a7a"/>
</svg>
