<svg id="svg" version="1.1" xmlns="http://www.w3.org/2000/svg" xmlns:xlink="http://www.w3.org/1999/xlink" width="400" height="380.64516129032256" viewBox="0, 0, 400,380.64516129032256"><g id="svgg"><path id="path0" d="M71.894 14.360 C 71.281 14.519,71.226 15.013,71.322 19.554 L 71.429 24.571 78.095 24.814 C 89.615 25.233,327.260 25.158,328.051 24.735 C 329.254 24.091,329.121 14.661,327.905 14.335 C 326.915 14.070,72.914 14.094,71.894 14.360 M46.369 27.120 C 45.768 27.568,45.703 28.196,45.797 32.575 L 45.905 37.524 50.857 37.639 C 53.581 37.703,56.538 37.650,57.429 37.521 L 59.048 37.287 59.048 32.380 C 59.048 28.873,58.912 27.386,58.571 27.165 C 57.691 26.595,47.125 26.556,46.369 27.120 M341.810 27.059 C 340.983 27.392,340.952 27.579,340.952 32.290 L 340.952 37.175 342.672 37.635 C 344.775 38.198,352.533 38.245,353.549 37.701 C 354.443 37.222,354.687 27.983,353.829 27.124 C 353.281 26.576,343.147 26.522,341.810 27.059 M33.600 39.695 C 33.117 40.178,32.939 50.056,33.383 51.714 C 33.606 52.547,33.753 52.571,38.530 52.571 L 43.447 52.571 43.819 51.594 C 44.370 50.144,44.299 40.261,43.733 39.695 C 43.101 39.063,34.232 39.063,33.600 39.695 M356.286 39.490 C 355.698 39.728,355.608 50.088,356.181 51.594 L 356.553 52.571 361.470 52.571 C 367.325 52.571,366.844 53.178,366.852 45.784 C 366.859 38.922,367.117 39.231,361.415 39.268 C 358.856 39.285,356.548 39.385,356.286 39.490 M23.438 64.665 C 22.186 64.742,21.031 65.010,20.872 65.260 C 20.532 65.795,20.463 321.178,20.803 322.064 C 20.997 322.570,21.818 322.667,25.938 322.667 L 30.843 322.667 31.136 321.619 C 31.591 319.992,31.503 65.631,31.048 65.210 C 30.574 64.772,26.471 64.478,23.438 64.665 M368.845 65.429 C 368.491 66.291,368.582 307.991,368.940 315.905 L 369.211 321.905 374.069 321.905 L 378.926 321.905 379.176 313.619 C 379.491 303.193,379.511 66.183,379.197 65.364 C 378.832 64.413,369.238 64.472,368.845 65.429 M201.289 78.929 C 201.128 79.190,200.963 101.797,200.923 129.167 C 200.883 156.537,200.733 179.300,200.590 179.751 C 200.011 181.575,201.688 181.512,148.381 181.714 L 98.095 181.905 98.095 187.238 L 98.095 192.571 148.381 192.763 C 201.705 192.967,200.012 192.903,200.593 194.735 C 200.738 195.192,200.883 217.988,200.915 245.394 C 200.956 279.696,201.099 295.347,201.375 295.623 C 201.626 295.874,203.616 295.984,206.698 295.917 L 211.619 295.810 211.818 245.524 C 212.029 191.985,211.957 193.870,213.833 193.181 C 214.291 193.012,237.119 192.836,264.561 192.788 C 292.003 192.741,314.589 192.620,314.751 192.519 C 315.161 192.266,315.127 182.189,314.716 181.935 C 314.533 181.822,291.966 181.718,264.567 181.704 C 211.471 181.677,213.171 181.735,212.360 179.919 C 212.193 179.544,211.957 156.610,211.837 128.952 L 211.619 78.667 206.601 78.561 C 202.910 78.483,201.505 78.580,201.289 78.929 M33.383 335.714 C 32.994 337.165,33.119 346.672,33.537 347.454 C 34.015 348.347,42.877 348.590,43.733 347.733 C 44.299 347.168,44.370 337.284,43.819 335.834 L 43.447 334.857 38.530 334.857 C 33.753 334.857,33.606 334.882,33.383 335.714 M356.181 335.834 C 355.514 337.588,355.705 347.688,356.410 347.959 C 357.429 348.350,365.864 348.160,366.376 347.734 C 366.883 347.314,367.080 337.443,366.617 335.714 C 366.394 334.882,366.247 334.857,361.470 334.857 L 356.553 334.857 356.181 335.834 M342.381 349.830 L 340.952 350.230 340.952 355.092 C 340.952 358.564,341.089 360.043,341.429 360.263 C 342.213 360.771,352.572 360.891,353.484 360.402 C 354.668 359.769,354.726 350.357,353.549 349.728 C 352.610 349.225,344.268 349.301,342.381 349.830 M45.968 349.968 C 45.829 350.108,45.714 352.416,45.714 355.098 C 45.714 361.168,45.353 360.879,52.707 360.702 C 59.532 360.537,59.048 360.967,59.048 355.073 L 59.048 350.190 57.857 349.952 C 56.263 349.633,46.290 349.647,45.968 349.968 M77.714 362.557 C 70.160 362.711,70.857 362.162,70.857 367.960 L 70.857 372.857 72.048 373.095 C 72.702 373.226,130.281 373.333,200.000 373.333 C 269.719 373.333,327.298 373.226,327.952 373.095 L 329.143 372.857 329.143 367.943 L 329.143 363.029 328.166 362.657 C 327.307 362.331,93.396 362.237,77.714 362.557 " stroke="none" fill="#747574" fill-rule="evenodd"></path><path id="path1" d="M64.705 12.926 C 56.863 13.211,57.199 12.919,57.058 19.573 L 56.952 24.571 51.409 24.762 C 46.694 24.924,45.699 25.066,44.743 25.714 C 43.801 26.353,42.788 26.507,38.476 26.667 L 33.333 26.857 33.143 32.000 C 32.983 36.312,32.829 37.324,32.190 38.266 C 31.542 39.222,31.400 40.218,31.238 44.933 L 31.048 50.476 25.945 50.667 C 20.882 50.856,20.835 50.866,20.040 51.933 L 19.238 53.008 19.238 193.714 L 19.238 334.420 20.040 335.496 C 20.835 336.563,20.882 336.573,25.945 336.762 L 31.048 336.952 31.238 342.495 C 31.400 347.211,31.542 348.206,32.190 349.162 C 32.829 350.104,32.983 351.117,33.143 355.429 L 33.333 360.571 38.433 360.678 C 42.994 360.773,43.659 360.874,44.719 361.630 C 45.775 362.384,46.508 362.497,51.429 362.667 L 56.952 362.857 57.143 367.960 C 57.332 373.022,57.342 373.070,58.409 373.865 L 59.484 374.667 200.000 374.667 L 340.516 374.667 341.591 373.865 C 342.658 373.070,342.668 373.022,342.857 367.960 L 343.048 362.857 348.572 362.667 C 353.493 362.497,354.225 362.384,355.281 361.630 C 356.341 360.874,357.006 360.773,361.567 360.678 L 366.667 360.571 366.773 355.471 C 366.869 350.910,366.969 350.246,367.726 349.186 C 368.479 348.130,368.592 347.397,368.762 342.476 L 368.952 336.952 374.055 336.762 C 379.118 336.573,379.165 336.563,379.960 335.496 L 380.762 334.420 380.762 193.714 L 380.762 53.008 379.960 51.933 C 379.165 50.866,379.118 50.856,374.055 50.667 L 368.952 50.476 368.762 44.933 C 368.600 40.218,368.458 39.222,367.810 38.266 C 367.171 37.324,367.017 36.312,366.857 32.000 L 366.667 26.857 361.567 26.750 C 357.006 26.655,356.341 26.554,355.281 25.798 C 354.225 25.045,353.493 24.932,348.572 24.762 L 343.048 24.571 342.857 19.468 C 342.668 14.406,342.658 14.359,341.591 13.564 L 340.516 12.762 205.591 12.735 C 131.383 12.721,67.984 12.806,64.705 12.926 M335.429 13.977 L 341.143 14.286 341.333 19.609 C 341.568 26.180,341.239 25.891,348.513 25.899 C 353.020 25.904,353.721 25.993,354.692 26.685 L 355.788 27.465 355.894 32.494 L 356.000 37.524 361.050 37.630 L 366.099 37.736 367.050 39.174 C 367.969 40.562,367.994 40.768,367.789 45.236 C 367.617 48.993,367.689 50.078,368.174 51.015 L 368.770 52.169 374.004 52.275 L 379.238 52.381 379.609 55.238 C 379.952 57.884,380.200 317.057,379.866 324.190 C 379.793 325.762,379.648 328.805,379.544 330.952 L 379.355 334.857 374.308 334.857 C 367.601 334.857,367.851 334.586,367.685 342.021 C 367.577 346.841,367.459 347.726,366.802 348.649 L 366.043 349.714 360.926 349.714 L 355.810 349.714 355.810 354.831 L 355.810 359.948 354.703 360.736 C 353.719 361.437,353.037 361.524,348.513 361.529 C 341.239 361.537,341.568 361.249,341.333 367.820 L 341.143 373.143 334.667 373.486 C 326.290 373.930,73.449 373.924,65.143 373.479 L 58.857 373.143 58.667 367.820 C 58.432 361.249,58.761 361.537,51.487 361.529 C 46.963 361.524,46.281 361.437,45.297 360.736 L 44.190 359.948 44.190 354.831 L 44.190 349.714 39.074 349.714 L 33.957 349.714 33.146 348.576 C 32.426 347.565,32.336 346.919,32.334 342.767 C 32.332 335.023,32.292 334.981,24.894 334.902 L 20.645 334.857 20.450 330.952 C 20.343 328.805,20.198 326.019,20.128 324.762 C 19.915 320.917,20.005 65.359,20.222 59.034 C 20.478 51.584,19.953 52.190,26.137 52.190 L 31.277 52.190 31.846 50.829 C 32.268 49.820,32.388 48.267,32.314 44.816 C 32.220 40.503,32.276 40.074,33.077 38.950 L 33.941 37.736 38.971 37.630 L 44.000 37.524 44.106 32.494 L 44.212 27.465 45.308 26.685 C 46.279 25.993,46.980 25.904,51.487 25.899 C 58.761 25.891,58.432 26.180,58.667 19.609 L 58.857 14.286 65.225 14.077 C 68.727 13.962,71.714 13.747,71.863 13.598 C 72.236 13.225,328.322 13.594,335.429 13.977 M71.651 27.200 C 71.407 27.493,71.251 28.565,71.305 29.581 C 71.543 34.147,71.259 37.242,70.571 37.555 C 69.954 37.836,66.568 38.055,51.699 38.775 C 44.913 39.103,45.347 38.666,45.339 45.190 C 45.335 48.647,45.157 50.690,44.762 51.810 C 44.361 52.947,44.190 54.982,44.190 58.642 C 44.190 65.450,44.502 65.102,38.286 65.231 L 33.333 65.333 33.333 193.714 L 33.333 322.095 38.286 322.198 C 44.502 322.326,44.190 321.978,44.190 328.787 C 44.190 332.446,44.361 334.482,44.762 335.619 C 45.157 336.739,45.335 338.781,45.339 342.238 C 45.347 348.762,44.913 348.325,51.699 348.654 C 73.871 349.727,71.238 348.870,71.238 355.012 C 71.238 358.265,71.388 359.997,71.695 360.305 C 72.183 360.792,308.544 360.905,321.524 360.423 L 327.810 360.190 327.916 355.185 L 328.022 350.180 329.703 349.757 C 330.628 349.524,333.527 349.333,336.144 349.333 C 339.077 349.333,341.314 349.153,341.975 348.864 C 342.573 348.603,345.491 348.308,348.571 348.198 L 354.095 348.000 354.295 342.476 C 354.444 338.379,354.665 336.586,355.152 335.536 C 355.673 334.413,355.811 333.031,355.815 328.869 C 355.822 321.299,355.320 321.946,361.280 321.820 L 366.286 321.714 366.520 315.619 C 366.825 307.683,366.824 80.225,366.519 72.000 L 366.286 65.714 361.280 65.608 C 355.320 65.482,355.822 66.129,355.815 58.559 C 355.811 54.439,355.670 53.004,355.163 51.893 C 354.692 50.861,354.459 48.977,354.306 44.952 L 354.095 39.429 348.571 39.231 C 345.491 39.121,342.573 38.826,341.975 38.564 C 341.314 38.275,339.077 38.095,336.144 38.095 C 333.527 38.095,330.628 37.905,329.703 37.672 L 328.022 37.248 327.916 32.243 L 327.810 27.238 321.143 26.999 C 305.844 26.450,72.117 26.638,71.651 27.200 M334.857 38.736 C 339.724 38.977,341.422 39.200,342.381 39.724 L 343.619 40.401 343.619 45.378 L 343.619 50.356 345.429 50.258 C 346.424 50.205,348.621 50.189,350.310 50.223 L 353.383 50.286 354.025 51.632 C 354.528 52.688,354.669 54.104,354.676 58.203 C 354.681 61.077,354.868 64.114,355.092 64.952 C 355.605 66.875,355.829 302.516,355.329 314.862 C 354.577 333.415,354.470 335.042,353.935 336.095 L 353.402 337.143 348.510 337.143 L 343.619 337.143 343.619 342.085 L 343.619 347.028 342.381 347.705 C 340.115 348.943,329.771 349.039,199.619 349.032 C 77.952 349.025,59.623 348.892,58.286 348.000 C 57.971 347.790,55.229 347.533,52.190 347.429 L 46.667 347.238 46.468 341.905 C 46.359 338.971,46.059 336.089,45.802 335.499 C 45.509 334.829,45.333 332.540,45.333 329.401 C 45.333 326.637,45.140 323.777,44.903 323.045 C 44.210 320.900,44.125 68.906,44.817 65.333 C 45.100 63.867,45.333 60.475,45.333 57.797 C 45.333 54.331,45.498 52.534,45.905 51.560 C 46.316 50.576,46.476 48.765,46.476 45.096 L 46.476 40.000 51.573 40.000 C 55.241 40.000,57.052 39.840,58.036 39.429 C 59.023 39.017,60.922 38.850,64.845 38.830 C 67.837 38.816,70.629 38.656,71.048 38.475 C 72.008 38.061,326.301 38.313,334.857 38.736 M199.802 77.877 L 198.857 78.823 198.852 122.745 C 198.849 146.902,198.743 167.052,198.617 167.524 C 198.394 168.356,198.245 168.381,193.538 168.381 C 187.172 168.381,187.339 168.212,187.466 174.527 C 187.559 179.200,187.556 179.219,186.637 179.476 C 186.130 179.618,165.944 179.751,141.780 179.772 L 97.846 179.810 96.733 180.923 L 95.619 182.037 95.619 187.238 L 95.619 192.440 96.733 193.553 L 97.846 194.667 141.209 194.671 C 165.058 194.673,185.214 194.781,186.000 194.911 L 187.429 195.147 187.429 199.991 C 187.429 206.297,187.225 206.095,193.605 206.095 C 198.242 206.095,198.394 206.121,198.617 206.952 C 198.743 207.424,198.849 227.580,198.852 251.744 L 198.857 295.678 199.971 296.791 L 201.084 297.905 206.395 297.905 C 214.814 297.905,214.089 303.063,214.100 243.048 C 214.103 223.667,214.209 207.424,214.335 206.952 C 214.558 206.120,214.707 206.095,219.414 206.095 C 225.725 206.095,225.524 206.299,225.524 199.925 L 225.524 195.147 226.952 194.911 C 227.738 194.781,247.696 194.673,271.302 194.671 C 294.909 194.669,314.501 194.560,314.840 194.430 C 317.336 193.472,317.336 181.004,314.840 180.046 C 314.501 179.916,294.652 179.792,270.731 179.772 C 246.810 179.751,226.810 179.613,226.286 179.465 C 225.335 179.197,225.333 179.190,225.333 174.420 C 225.333 168.116,225.594 168.381,219.389 168.381 C 214.618 168.381,214.486 168.359,214.306 167.524 C 214.205 167.052,214.073 147.007,214.013 122.979 L 213.903 79.292 213.101 78.217 L 212.300 77.143 206.524 77.038 C 200.817 76.934,200.736 76.944,199.802 77.877 M212.239 78.344 C 212.673 78.867,212.800 86.635,212.985 123.963 C 213.235 174.547,213.320 179.186,214.004 179.871 C 214.373 180.240,225.415 180.395,264.368 180.577 C 312.108 180.801,314.293 180.841,315.035 181.512 C 316.042 182.424,316.197 191.647,315.225 192.931 C 314.678 193.655,313.590 193.676,264.527 193.901 C 215.364 194.126,214.378 194.145,213.836 194.875 C 213.424 195.429,213.278 196.835,213.266 200.381 C 213.256 203.000,213.178 225.450,213.093 250.269 C 212.909 303.527,213.833 297.041,206.448 296.914 C 199.117 296.787,200.047 303.284,199.832 250.710 C 199.627 200.630,199.510 195.367,198.589 194.602 C 198.090 194.188,188.914 194.072,148.227 193.970 L 98.476 193.845 97.619 193.046 C 96.814 192.297,96.762 191.943,96.762 187.238 C 96.762 182.533,96.814 182.179,97.619 181.430 L 98.476 180.632 148.190 180.485 C 175.533 180.404,198.196 180.204,198.552 180.040 C 199.512 179.599,199.621 174.775,199.831 123.831 C 199.999 83.118,200.071 79.029,200.638 78.402 C 201.534 77.413,211.425 77.363,212.239 78.344 " stroke="none" fill="#b4b4b4" fill-rule="evenodd"></path><path id="path2" d="M0.000 190.476 L 0.000 380.952 200.000 380.952 L 400.000 380.952 400.000 190.476 L 400.000 0.000 200.000 0.000 L 0.000 0.000 0.000 190.476 M342.286 12.392 C 343.289 12.753,345.374 12.943,348.391 12.947 C 354.845 12.955,354.667 12.777,354.667 19.199 C 354.667 25.405,354.358 25.143,361.660 25.143 C 368.546 25.143,368.381 24.980,368.381 31.806 C 368.381 39.174,368.114 38.857,374.325 38.857 C 380.754 38.857,380.571 38.672,380.571 45.181 C 380.571 48.435,380.741 50.218,381.143 51.179 C 382.012 53.258,382.012 334.170,381.143 336.249 C 380.741 337.210,380.571 338.993,380.571 342.247 C 380.571 348.756,380.754 348.571,374.325 348.571 C 368.114 348.571,368.381 348.255,368.381 355.622 C 368.381 362.449,368.546 362.286,361.660 362.286 C 354.372 362.286,354.667 362.040,354.667 368.126 C 354.667 374.698,354.880 374.474,348.608 374.482 C 345.402 374.486,343.304 374.670,342.286 375.037 C 339.986 375.865,60.014 375.865,57.714 375.037 C 56.701 374.671,54.606 374.486,51.459 374.482 C 45.117 374.474,45.333 374.697,45.333 368.193 C 45.333 362.029,45.637 362.286,38.340 362.286 C 31.454 362.286,31.619 362.449,31.619 355.622 C 31.619 348.269,31.869 348.571,25.778 348.571 C 19.199 348.571,19.429 348.792,19.429 342.464 C 19.429 339.017,19.263 337.222,18.857 336.249 C 17.988 334.170,17.988 53.258,18.857 51.179 C 19.262 50.210,19.429 48.419,19.429 45.031 C 19.429 38.633,19.201 38.857,25.712 38.857 C 31.881 38.857,31.619 39.171,31.619 31.792 C 31.619 24.931,31.408 25.143,38.268 25.143 C 45.638 25.143,45.333 25.394,45.333 19.302 C 45.333 12.730,45.120 12.954,51.392 12.947 C 54.598 12.943,56.696 12.759,57.714 12.392 C 60.014 11.563,339.986 11.563,342.286 12.392 M65.905 39.619 C 57.621 39.856,58.286 39.355,58.286 45.356 C 58.286 51.968,58.445 51.810,51.823 51.810 C 47.100 51.810,46.863 51.847,46.394 52.667 C 45.671 53.934,45.671 333.495,46.394 334.762 C 46.862 335.581,47.103 335.619,51.750 335.619 C 58.341 335.619,58.046 335.333,58.286 341.968 L 58.476 347.238 65.143 347.491 C 74.050 347.830,339.803 347.804,340.709 347.464 C 341.355 347.222,341.412 346.755,341.357 342.172 C 341.273 335.221,341.255 335.238,348.346 335.238 L 353.489 335.238 353.792 333.810 C 354.182 331.973,354.192 54.631,353.802 53.238 L 353.509 52.190 348.356 52.190 C 341.274 52.190,341.333 52.250,341.333 45.177 L 341.333 40.035 340.095 39.814 C 338.569 39.542,75.164 39.355,65.905 39.619 M212.462 76.209 C 214.185 76.810,214.476 77.910,214.476 83.827 L 214.476 89.143 219.419 89.143 L 224.361 89.143 224.943 90.267 C 225.452 91.252,225.524 96.020,225.524 128.867 L 225.524 166.343 226.386 167.153 L 227.248 167.963 266.672 168.137 C 288.355 168.232,307.947 168.312,310.210 168.315 C 315.633 168.321,315.429 168.091,315.429 174.176 C 315.429 178.839,315.477 179.155,316.286 179.810 C 317.615 180.886,317.615 193.341,316.286 194.756 C 315.490 195.602,315.429 196.014,315.429 200.478 C 315.429 203.915,315.293 205.373,314.952 205.584 C 314.237 206.028,312.399 206.056,268.190 206.300 C 227.826 206.523,227.226 206.537,226.419 207.294 L 225.600 208.061 225.467 251.591 C 225.356 287.781,225.245 295.227,224.810 295.751 C 224.376 296.275,223.493 296.381,219.560 296.381 L 214.832 296.381 213.511 297.702 L 212.190 299.022 212.190 303.721 C 212.190 309.614,212.476 309.333,206.476 309.333 C 200.461 309.333,200.762 309.637,200.762 303.556 C 200.762 298.901,200.725 298.674,199.905 298.244 C 199.433 297.996,198.911 297.561,198.743 297.278 C 198.511 296.885,197.227 296.762,193.361 296.762 C 189.295 296.762,188.189 296.647,187.806 296.186 C 187.429 295.732,187.318 286.320,187.283 251.771 L 187.238 207.933 186.339 207.204 C 185.465 206.497,184.198 206.476,141.694 206.476 L 97.948 206.476 97.355 205.630 C 96.897 204.975,96.762 203.724,96.762 200.125 C 96.762 193.568,96.716 193.524,90.003 193.524 C 83.762 193.524,84.090 193.877,84.131 187.200 C 84.172 180.590,83.827 180.954,90.047 180.946 C 96.766 180.937,96.652 181.052,96.825 174.138 C 96.938 169.655,97.037 169.018,97.692 168.540 C 98.320 168.081,105.026 168.000,142.159 168.000 L 185.887 168.000 186.563 166.969 C 187.199 165.998,187.240 163.404,187.275 122.412 C 187.304 87.721,187.410 78.767,187.798 78.300 C 188.190 77.827,189.254 77.714,193.321 77.714 C 197.826 77.714,198.429 77.636,199.028 76.974 C 200.055 75.839,209.807 75.284,212.462 76.209 " stroke="none" fill="#f3f3f3" fill-rule="evenodd"></path><path id="path3" d="M71.863 13.598 C 71.714 13.747,68.727 13.962,65.225 14.077 L 58.857 14.286 58.667 19.609 C 58.432 26.180,58.761 25.891,51.487 25.899 C 46.980 25.904,46.279 25.993,45.308 26.685 L 44.212 27.465 44.106 32.494 L 44.000 37.524 38.971 37.630 L 33.941 37.736 33.077 38.950 C 32.276 40.074,32.220 40.503,32.314 44.816 C 32.388 48.267,32.268 49.820,31.846 50.829 L 31.277 52.190 26.137 52.190 C 19.953 52.190,20.478 51.584,20.222 59.034 C 20.005 65.359,19.915 320.917,20.128 324.762 C 20.198 326.019,20.343 328.805,20.450 330.952 L 20.645 334.857 24.894 334.902 C 32.292 334.981,32.332 335.023,32.334 342.767 C 32.336 346.919,32.426 347.565,33.146 348.576 L 33.957 349.714 39.074 349.714 L 44.190 349.714 44.190 354.831 L 44.190 359.948 45.297 360.736 C 46.281 361.437,46.963 361.524,51.487 361.529 C 58.761 361.537,58.432 361.249,58.667 367.820 L 58.857 373.143 65.143 373.479 C 73.449 373.924,326.290 373.930,334.667 373.486 L 341.143 373.143 341.333 367.820 C 341.568 361.249,341.239 361.537,348.513 361.529 C 353.037 361.524,353.719 361.437,354.703 360.736 L 355.810 359.948 355.810 354.831 L 355.810 349.714 360.926 349.714 L 366.043 349.714 366.802 348.649 C 367.459 347.726,367.577 346.841,367.685 342.021 C 367.851 334.586,367.601 334.857,374.308 334.857 L 379.355 334.857 379.544 330.952 C 379.648 328.805,379.793 325.762,379.866 324.190 C 380.200 317.057,379.952 57.884,379.609 55.238 L 379.238 52.381 374.004 52.275 L 368.770 52.169 368.174 51.015 C 367.689 50.078,367.617 48.993,367.789 45.236 C 367.994 40.768,367.969 40.562,367.050 39.174 L 366.099 37.736 361.050 37.630 L 356.000 37.524 355.894 32.494 L 355.788 27.465 354.692 26.685 C 353.721 25.993,353.020 25.904,348.513 25.899 C 341.239 25.891,341.568 26.180,341.333 19.609 L 341.143 14.286 335.429 13.977 C 328.322 13.594,72.236 13.225,71.863 13.598 M327.905 14.335 C 329.121 14.661,329.254 24.091,328.051 24.735 C 327.260 25.158,89.615 25.233,78.095 24.814 L 71.429 24.571 71.322 19.554 C 71.226 15.013,71.281 14.519,71.894 14.360 C 72.914 14.094,326.915 14.070,327.905 14.335 M58.571 27.165 C 58.912 27.386,59.048 28.873,59.048 32.380 L 59.048 37.287 57.429 37.521 C 56.538 37.650,53.581 37.703,50.857 37.639 L 45.905 37.524 45.797 32.575 C 45.703 28.196,45.768 27.568,46.369 27.120 C 47.125 26.556,57.691 26.595,58.571 27.165 M321.143 26.999 L 327.810 27.238 327.916 32.243 L 328.022 37.248 329.703 37.672 C 330.628 37.905,333.527 38.095,336.144 38.095 C 339.077 38.095,341.314 38.275,341.975 38.564 C 342.573 38.826,345.491 39.121,348.571 39.231 L 354.095 39.429 354.306 44.952 C 354.459 48.977,354.692 50.861,355.163 51.893 C 355.670 53.004,355.811 54.439,355.815 58.559 C 355.822 66.129,355.320 65.482,361.280 65.608 L 366.286 65.714 366.519 72.000 C 366.824 80.225,366.825 307.683,366.520 315.619 L 366.286 321.714 361.280 321.820 C 355.320 321.946,355.822 321.299,355.815 328.869 C 355.811 333.031,355.673 334.413,355.152 335.536 C 354.665 336.586,354.444 338.379,354.295 342.476 L 354.095 348.000 348.571 348.198 C 345.491 348.308,342.573 348.603,341.975 348.864 C 341.314 349.153,339.077 349.333,336.144 349.333 C 333.527 349.333,330.628 349.524,329.703 349.757 L 328.022 350.180 327.916 355.185 L 327.810 360.190 321.524 360.423 C 308.544 360.905,72.183 360.792,71.695 360.305 C 71.388 359.997,71.238 358.265,71.238 355.012 C 71.238 348.870,73.871 349.727,51.699 348.654 C 44.913 348.325,45.347 348.762,45.339 342.238 C 45.335 338.781,45.157 336.739,44.762 335.619 C 44.361 334.482,44.190 332.446,44.190 328.787 C 44.190 321.978,44.502 322.326,38.286 322.198 L 33.333 322.095 33.333 193.714 L 33.333 65.333 38.286 65.231 C 44.502 65.102,44.190 65.450,44.190 58.642 C 44.190 54.982,44.361 52.947,44.762 51.810 C 45.157 50.690,45.335 48.647,45.339 45.190 C 45.347 38.666,44.913 39.103,51.699 38.775 C 66.568 38.055,69.954 37.836,70.571 37.555 C 71.259 37.242,71.543 34.147,71.305 29.581 C 71.251 28.565,71.407 27.493,71.651 27.200 C 72.117 26.638,305.844 26.450,321.143 26.999 M353.829 27.124 C 354.687 27.983,354.443 37.222,353.549 37.701 C 352.533 38.245,344.775 38.198,342.672 37.635 L 340.952 37.175 340.952 32.290 C 340.952 27.579,340.983 27.392,341.810 27.059 C 343.147 26.522,353.281 26.576,353.829 27.124 M43.733 39.695 C 44.299 40.261,44.370 50.144,43.819 51.594 L 43.447 52.571 38.530 52.571 C 33.753 52.571,33.606 52.547,33.383 51.714 C 32.939 50.056,33.117 40.178,33.600 39.695 C 34.232 39.063,43.101 39.063,43.733 39.695 M366.463 39.975 C 366.881 40.756,367.006 50.263,366.617 51.714 C 366.394 52.547,366.247 52.571,361.470 52.571 L 356.553 52.571 356.181 51.594 C 355.608 50.088,355.698 39.728,356.286 39.490 C 357.838 38.864,366.078 39.256,366.463 39.975 M31.048 65.210 C 31.503 65.631,31.591 319.992,31.136 321.619 L 30.843 322.667 25.938 322.667 C 21.818 322.667,20.997 322.570,20.803 322.064 C 20.463 321.178,20.532 65.795,20.872 65.260 C 21.400 64.430,30.157 64.387,31.048 65.210 M379.197 65.364 C 379.511 66.183,379.491 303.193,379.176 313.619 L 378.926 321.905 374.069 321.905 L 369.211 321.905 368.940 315.905 C 368.582 307.991,368.491 66.291,368.845 65.429 C 369.238 64.472,378.832 64.413,379.197 65.364 M200.638 78.402 C 200.071 79.029,199.999 83.118,199.831 123.831 C 199.621 174.775,199.512 179.599,198.552 180.040 C 198.196 180.204,175.533 180.404,148.190 180.485 L 98.476 180.632 97.619 181.430 C 96.814 182.179,96.762 182.533,96.762 187.238 C 96.762 191.943,96.814 192.297,97.619 193.046 L 98.476 193.845 148.227 193.970 C 188.914 194.072,198.090 194.188,198.589 194.602 C 199.510 195.367,199.627 200.630,199.832 250.710 C 200.047 303.284,199.117 296.787,206.448 296.914 C 213.833 297.041,212.909 303.527,213.093 250.269 C 213.178 225.450,213.256 203.000,213.266 200.381 C 213.278 196.835,213.424 195.429,213.836 194.875 C 214.378 194.145,215.364 194.126,264.527 193.901 C 313.590 193.676,314.678 193.655,315.225 192.931 C 316.197 191.647,316.042 182.424,315.035 181.512 C 314.293 180.841,312.108 180.801,264.368 180.577 C 225.415 180.395,214.373 180.240,214.004 179.871 C 213.320 179.186,213.235 174.547,212.985 123.963 C 212.800 86.635,212.673 78.867,212.239 78.344 C 211.425 77.363,201.534 77.413,200.638 78.402 M211.837 128.952 C 211.957 156.610,212.193 179.544,212.360 179.919 C 213.171 181.735,211.471 181.677,264.567 181.704 C 291.966 181.718,314.533 181.822,314.716 181.935 C 315.127 182.189,315.161 192.266,314.751 192.519 C 314.589 192.620,292.003 192.741,264.561 192.788 C 237.119 192.836,214.291 193.012,213.833 193.181 C 211.957 193.870,212.029 191.985,211.818 245.524 L 211.619 295.810 206.698 295.917 C 203.616 295.984,201.626 295.874,201.375 295.623 C 201.099 295.347,200.956 279.696,200.915 245.394 C 200.883 217.988,200.738 195.192,200.593 194.735 C 200.012 192.903,201.705 192.967,148.381 192.763 L 98.095 192.571 98.095 187.238 L 98.095 181.905 148.381 181.714 C 201.688 181.512,200.011 181.575,200.590 179.751 C 200.733 179.300,200.883 156.537,200.923 129.167 C 200.963 101.797,201.128 79.190,201.289 78.929 C 201.505 78.580,202.910 78.483,206.601 78.561 L 211.619 78.667 211.837 128.952 M43.819 335.834 C 44.370 337.284,44.299 347.168,43.733 347.733 C 43.427 348.039,41.730 348.190,38.604 348.190 C 32.881 348.190,33.141 348.503,33.148 341.644 C 33.156 334.251,32.675 334.857,38.530 334.857 L 43.447 334.857 43.819 335.834 M366.617 335.714 C 367.080 337.443,366.883 347.314,366.376 347.734 C 365.864 348.160,357.429 348.350,356.410 347.959 C 355.705 347.688,355.514 337.588,356.181 335.834 L 356.553 334.857 361.470 334.857 C 366.247 334.857,366.394 334.882,366.617 335.714 M353.549 349.728 C 354.726 350.357,354.668 359.769,353.484 360.402 C 352.572 360.891,342.213 360.771,341.429 360.263 C 341.089 360.043,340.952 358.564,340.952 355.092 L 340.952 350.230 342.381 349.830 C 344.268 349.301,352.610 349.225,353.549 349.728 M57.857 349.952 L 59.048 350.190 59.048 355.073 C 59.048 360.967,59.532 360.537,52.707 360.702 C 45.353 360.879,45.714 361.168,45.714 355.098 C 45.714 352.416,45.829 350.108,45.968 349.968 C 46.290 349.647,56.263 349.633,57.857 349.952 M328.166 362.657 L 329.143 363.029 329.143 367.943 L 329.143 372.857 327.952 373.095 C 327.298 373.226,269.719 373.333,200.000 373.333 C 130.281 373.333,72.702 373.226,72.048 373.095 L 70.857 372.857 70.857 367.960 C 70.857 362.162,70.160 362.711,77.714 362.557 C 93.396 362.237,327.307 362.331,328.166 362.657 " stroke="none" fill="#949494" fill-rule="evenodd"></path><path id="path4" d="M57.714 12.392 C 56.696 12.759,54.598 12.943,51.392 12.947 C 45.120 12.954,45.333 12.730,45.333 19.302 C 45.333 25.394,45.638 25.143,38.268 25.143 C 31.408 25.143,31.619 24.931,31.619 31.792 C 31.619 39.171,31.881 38.857,25.712 38.857 C 19.201 38.857,19.429 38.633,19.429 45.031 C 19.429 48.419,19.262 50.210,18.857 51.179 C 17.988 53.258,17.988 334.170,18.857 336.249 C 19.263 337.222,19.429 339.017,19.429 342.464 C 19.429 348.792,19.199 348.571,25.778 348.571 C 31.869 348.571,31.619 348.269,31.619 355.622 C 31.619 362.449,31.454 362.286,38.340 362.286 C 45.637 362.286,45.333 362.029,45.333 368.193 C 45.333 374.697,45.117 374.474,51.459 374.482 C 54.606 374.486,56.701 374.671,57.714 375.037 C 60.014 375.865,339.986 375.865,342.286 375.037 C 343.304 374.670,345.402 374.486,348.608 374.482 C 354.880 374.474,354.667 374.698,354.667 368.126 C 354.667 362.040,354.372 362.286,361.660 362.286 C 368.546 362.286,368.381 362.449,368.381 355.622 C 368.381 348.255,368.114 348.571,374.325 348.571 C 380.754 348.571,380.571 348.756,380.571 342.247 C 380.571 338.993,380.741 337.210,381.143 336.249 C 382.012 334.170,382.012 53.258,381.143 51.179 C 380.741 50.218,380.571 48.435,380.571 45.181 C 380.571 38.672,380.754 38.857,374.325 38.857 C 368.114 38.857,368.381 39.174,368.381 31.806 C 368.381 24.980,368.546 25.143,361.660 25.143 C 354.358 25.143,354.667 25.405,354.667 19.199 C 354.667 12.777,354.845 12.955,348.391 12.947 C 345.374 12.943,343.289 12.753,342.286 12.392 C 339.986 11.563,60.014 11.563,57.714 12.392 M341.591 13.564 C 342.658 14.359,342.668 14.406,342.857 19.468 L 343.048 24.571 348.572 24.762 C 353.493 24.932,354.225 25.045,355.281 25.798 C 356.341 26.554,357.006 26.655,361.567 26.750 L 366.667 26.857 366.857 32.000 C 367.017 36.312,367.171 37.324,367.810 38.266 C 368.458 39.222,368.600 40.218,368.762 44.933 L 368.952 50.476 374.055 50.667 C 379.118 50.856,379.165 50.866,379.960 51.933 L 380.762 53.008 380.762 193.714 L 380.762 334.420 379.960 335.496 C 379.165 336.563,379.118 336.573,374.055 336.762 L 368.952 336.952 368.762 342.476 C 368.592 347.397,368.479 348.130,367.726 349.186 C 366.969 350.246,366.869 350.910,366.773 355.471 L 366.667 360.571 361.567 360.678 C 357.006 360.773,356.341 360.874,355.281 361.630 C 354.225 362.384,353.493 362.497,348.572 362.667 L 343.048 362.857 342.857 367.960 C 342.668 373.022,342.658 373.070,341.591 373.865 L 340.516 374.667 200.000 374.667 L 59.484 374.667 58.409 373.865 C 57.342 373.070,57.332 373.022,57.143 367.960 L 56.952 362.857 51.429 362.667 C 46.508 362.497,45.775 362.384,44.719 361.630 C 43.659 360.874,42.994 360.773,38.433 360.678 L 33.333 360.571 33.143 355.429 C 32.983 351.117,32.829 350.104,32.190 349.162 C 31.542 348.206,31.400 347.211,31.238 342.495 L 31.048 336.952 25.945 336.762 C 20.882 336.573,20.835 336.563,20.040 335.496 L 19.238 334.420 19.238 193.714 L 19.238 53.008 20.040 51.933 C 20.835 50.866,20.882 50.856,25.945 50.667 L 31.048 50.476 31.238 44.933 C 31.400 40.218,31.542 39.222,32.190 38.266 C 32.829 37.324,32.983 36.312,33.143 32.000 L 33.333 26.857 38.476 26.667 C 42.788 26.507,43.801 26.353,44.743 25.714 C 45.699 25.066,46.694 24.924,51.409 24.762 L 56.952 24.571 57.058 19.573 C 57.199 12.919,56.863 13.211,64.705 12.926 C 67.984 12.806,131.383 12.721,205.591 12.735 L 340.516 12.762 341.591 13.564 M71.048 38.475 C 70.629 38.656,67.837 38.816,64.845 38.830 C 60.922 38.850,59.023 39.017,58.036 39.429 C 57.052 39.840,55.241 40.000,51.573 40.000 L 46.476 40.000 46.476 45.096 C 46.476 48.765,46.316 50.576,45.905 51.560 C 45.498 52.534,45.333 54.331,45.333 57.797 C 45.333 60.475,45.100 63.867,44.817 65.333 C 44.125 68.906,44.210 320.900,44.903 323.045 C 45.140 323.777,45.333 326.637,45.333 329.401 C 45.333 332.540,45.509 334.829,45.802 335.499 C 46.059 336.089,46.359 338.971,46.468 341.905 L 46.667 347.238 52.190 347.429 C 55.229 347.533,57.971 347.790,58.286 348.000 C 59.623 348.892,77.952 349.025,199.619 349.032 C 329.771 349.039,340.115 348.943,342.381 347.705 L 343.619 347.028 343.619 342.085 L 343.619 337.143 348.510 337.143 L 353.402 337.143 353.935 336.095 C 354.470 335.042,354.577 333.415,355.329 314.862 C 355.829 302.516,355.605 66.875,355.092 64.952 C 354.868 64.114,354.681 61.077,354.676 58.203 C 354.669 54.104,354.528 52.688,354.025 51.632 L 353.383 50.286 350.310 50.223 C 348.621 50.189,346.424 50.205,345.429 50.258 L 343.619 50.356 343.619 45.378 L 343.619 40.401 342.381 39.724 C 341.422 39.200,339.724 38.977,334.857 38.736 C 326.301 38.313,72.008 38.061,71.048 38.475 M340.095 39.814 L 341.333 40.035 341.333 45.177 C 341.333 52.250,341.274 52.190,348.356 52.190 L 353.509 52.190 353.802 53.238 C 354.192 54.631,354.182 331.973,353.792 333.810 L 353.489 335.238 348.346 335.238 C 341.255 335.238,341.273 335.221,341.357 342.172 C 341.412 346.755,341.355 347.222,340.709 347.464 C 339.803 347.804,74.050 347.830,65.143 347.491 L 58.476 347.238 58.286 341.968 C 58.046 335.333,58.341 335.619,51.750 335.619 C 47.103 335.619,46.862 335.581,46.394 334.762 C 45.671 333.495,45.671 53.934,46.394 52.667 C 46.863 51.847,47.100 51.810,51.823 51.810 C 58.445 51.810,58.286 51.968,58.286 45.356 C 58.286 41.830,58.421 40.338,58.762 40.118 C 59.810 39.440,336.321 39.141,340.095 39.814 M200.516 76.073 C 200.066 76.161,199.397 76.566,199.028 76.974 C 198.429 77.636,197.826 77.714,193.321 77.714 C 189.254 77.714,188.190 77.827,187.798 78.300 C 187.410 78.767,187.304 87.721,187.275 122.412 C 187.240 163.404,187.199 165.998,186.563 166.969 L 185.887 168.000 142.159 168.000 C 105.026 168.000,98.320 168.081,97.692 168.540 C 97.037 169.018,96.938 169.655,96.825 174.138 C 96.652 181.052,96.766 180.937,90.047 180.946 C 83.827 180.954,84.172 180.590,84.131 187.200 C 84.090 193.877,83.762 193.524,90.003 193.524 C 96.716 193.524,96.762 193.568,96.762 200.125 C 96.762 203.724,96.897 204.975,97.355 205.630 L 97.948 206.476 141.694 206.476 C 184.198 206.476,185.465 206.497,186.339 207.204 L 187.238 207.933 187.283 251.771 C 187.318 286.320,187.429 295.732,187.806 296.186 C 188.189 296.647,189.295 296.762,193.361 296.762 C 197.227 296.762,198.511 296.885,198.743 297.278 C 198.911 297.561,199.433 297.996,199.905 298.244 C 200.725 298.674,200.762 298.901,200.762 303.556 C 200.762 309.637,200.461 309.333,206.476 309.333 C 212.476 309.333,212.190 309.614,212.190 303.721 L 212.190 299.022 213.511 297.702 L 214.832 296.381 219.560 296.381 C 223.493 296.381,224.376 296.275,224.810 295.751 C 225.245 295.227,225.356 287.781,225.467 251.591 L 225.600 208.061 226.419 207.294 C 227.226 206.537,227.826 206.523,268.190 206.300 C 312.399 206.056,314.237 206.028,314.952 205.584 C 315.293 205.373,315.429 203.915,315.429 200.478 C 315.429 196.014,315.490 195.602,316.286 194.756 C 317.615 193.341,317.615 180.886,316.286 179.810 C 315.477 179.155,315.429 178.839,315.429 174.176 C 315.429 168.091,315.633 168.321,310.210 168.315 C 307.947 168.312,288.355 168.232,266.672 168.137 L 227.248 167.963 226.386 167.153 L 225.524 166.343 225.524 128.867 C 225.524 96.020,225.452 91.252,224.943 90.267 L 224.361 89.143 219.419 89.143 L 214.476 89.143 214.476 83.827 C 214.476 77.910,214.185 76.810,212.462 76.209 C 211.379 75.832,202.279 75.728,200.516 76.073 M213.101 78.217 L 213.903 79.292 214.013 122.979 C 214.073 147.007,214.205 167.052,214.306 167.524 C 214.486 168.359,214.618 168.381,219.389 168.381 C 225.594 168.381,225.333 168.116,225.333 174.420 C 225.333 179.190,225.335 179.197,226.286 179.465 C 226.810 179.613,246.810 179.751,270.731 179.772 C 294.652 179.792,314.501 179.916,314.840 180.046 C 317.336 181.004,317.336 193.472,314.840 194.430 C 314.501 194.560,294.909 194.669,271.302 194.671 C 247.696 194.673,227.738 194.781,226.952 194.911 L 225.524 195.147 225.524 199.925 C 225.524 206.299,225.725 206.095,219.414 206.095 C 214.707 206.095,214.558 206.120,214.335 206.952 C 214.209 207.424,214.103 223.667,214.100 243.048 C 214.089 303.063,214.814 297.905,206.395 297.905 L 201.084 297.905 199.971 296.791 L 198.857 295.678 198.852 251.744 C 198.849 227.580,198.743 207.424,198.617 206.952 C 198.394 206.121,198.242 206.095,193.605 206.095 C 187.225 206.095,187.429 206.297,187.429 199.991 L 187.429 195.147 186.000 194.911 C 185.214 194.781,165.058 194.673,141.209 194.671 L 97.846 194.667 96.733 193.553 L 95.619 192.440 95.619 187.238 L 95.619 182.037 96.733 180.923 L 97.846 179.810 141.780 179.772 C 165.944 179.751,186.130 179.618,186.637 179.476 C 187.556 179.219,187.559 179.200,187.466 174.527 C 187.339 168.212,187.172 168.381,193.538 168.381 C 198.245 168.381,198.394 168.356,198.617 167.524 C 198.743 167.052,198.849 146.902,198.852 122.745 L 198.857 78.823 199.802 77.877 C 200.736 76.944,200.817 76.934,206.524 77.038 L 212.300 77.143 213.101 78.217 " stroke="none" fill="#d4d4d4" fill-rule="evenodd"></path></g></svg>